<svg width="30" height="141" viewBox="0 0 30 141" fill="none" xmlns="http://www.w3.org/2000/svg">
    <path d="M0 10C0 4.47715 4.47715 0 10 0H24V141H10C4.47715 141 0 136.523 0 131V10Z" fill="#0DAE6B"/>
    <path d="M16.028 95.78C16.028 96.2373 15.9113 96.6573 15.678 97.04C15.4447 97.4227 15.132 97.7307 14.74 97.964C14.3387 98.188 13.9047 98.3 13.438 98.3C13.0367 98.3 12.6307 98.202 12.22 98.006C11.8093 97.81 11.4313 97.5347 11.086 97.18L10.624 96.718L10.204 97.166L9.154 96.256L10.778 94.576C11.226 94.1093 11.6553 93.7733 12.066 93.568C12.4767 93.3627 12.934 93.26 13.438 93.26C13.9047 93.26 14.3387 93.3767 14.74 93.61C15.132 93.834 15.4447 94.1373 15.678 94.52C15.9113 94.9027 16.028 95.3227 16.028 95.78ZM13.438 97.04C13.7647 97.04 14.0447 96.9187 14.278 96.676C14.502 96.4333 14.614 96.1347 14.614 95.78C14.614 95.4253 14.502 95.1313 14.278 94.898C14.0447 94.6553 13.7647 94.534 13.438 94.534C13.186 94.534 12.948 94.5947 12.724 94.716C12.4907 94.8373 12.1967 95.08 11.842 95.444L11.534 95.766L11.982 96.228C12.2713 96.5173 12.5327 96.7273 12.766 96.858C12.99 96.9793 13.214 97.04 13.438 97.04ZM16 89.3933C16 90.1026 15.846 90.6719 15.538 91.1013C15.23 91.5213 14.8333 91.7499 14.348 91.7873C14.1707 91.8246 13.8673 91.8433 13.438 91.8433L13.438 90.6393C13.7087 90.6393 13.928 90.6253 14.096 90.5973C14.264 90.5599 14.3807 90.4666 14.446 90.3173C14.5113 90.1679 14.544 89.9346 14.544 89.6173L14.544 88.5673C14.544 87.7366 14.2967 87.3213 13.802 87.3213C13.7087 87.3213 13.6153 87.3353 13.522 87.3633L13.452 87.3773L9.35 88.4273L9 87.1533L13.13 86.1173C13.6527 85.9866 14.0213 85.8559 14.236 85.7253C14.4413 85.5946 14.544 85.3799 14.544 85.0813L14.544 84.3953L15.272 84.3113L16 84.3953L16 85.0813C16 85.6973 15.7573 86.2013 15.272 86.5933C15.7573 87.0599 16 87.7739 16 88.7353L16 89.3933ZM16 77.2148C16 77.9241 15.7293 78.4981 15.188 78.9368C15.7293 79.3661 16 79.9681 16 80.7428C16 81.4428 15.7293 81.9981 15.188 82.4088C15.7293 82.8568 16 83.4495 16 84.1868L16 84.5368L14.544 84.5368L14.544 84.1868C14.544 83.7388 14.4507 83.4355 14.264 83.2768C14.0773 83.1181 13.8393 83.0388 13.55 83.0388L11.828 83.0388L11.828 81.8208L13.55 81.8208C13.7553 81.8208 13.9747 81.7508 14.208 81.6108C14.432 81.4708 14.544 81.1815 14.544 80.7428C14.544 80.2948 14.4553 79.9961 14.278 79.8468C14.0913 79.6881 13.8487 79.6088 13.55 79.6088L11.828 79.6088L11.828 78.3908L13.564 78.3908C13.7507 78.3908 13.9607 78.3208 14.194 78.1808C14.418 78.0315 14.53 77.7375 14.53 77.2988C14.53 76.8881 14.46 76.5895 14.32 76.4028C14.18 76.2068 13.998 76.1088 13.774 76.1088C13.69 76.1088 13.606 76.1228 13.522 76.1508L11.8 76.6128L11.45 75.4368L13.172 74.9748L13.27 74.9468C13.6527 74.8441 13.9607 74.6435 14.194 74.3448C14.4273 74.0461 14.544 73.7008 14.544 73.3088L15.272 73.2248L16 73.3088C16 73.7101 15.9253 74.0788 15.776 74.4148C15.6173 74.7508 15.398 75.0448 15.118 75.2968C15.3887 75.5021 15.6033 75.7681 15.762 76.0948C15.9207 76.4215 16 76.7948 16 77.2148ZM8.888 80.9808L8.888 79.5108L10.358 79.4968L10.358 80.9808L8.888 80.9808ZM7.012 79.5948L7.012 78.2508L8.272 78.2508L8.272 79.5948L7.012 79.5948ZM8.888 78.3628L8.888 76.8928L10.358 76.8928L10.358 78.3628L8.888 78.3628ZM14.544 73.4489L14.544 72.3429C14.544 71.8949 14.4693 71.5496 14.32 71.3069C14.1707 71.0549 13.914 70.9289 13.55 70.9289C13.3633 70.9289 13.158 70.9616 12.934 71.0269L10.848 71.5869L10.484 70.3269L12.57 69.7669C12.906 69.6736 13.2327 69.6269 13.55 69.6269C14.3153 69.6269 14.9173 69.8836 15.356 70.3969C15.7853 70.9102 16 71.5589 16 72.3429L16 73.4489L14.544 73.4489ZM7.726 72.3289L7.726 70.7749L9.28 70.7749L9.28 72.3289L7.726 72.3289ZM18.184 64.1042C17.96 63.0122 17.778 62.2329 17.638 61.7662C17.5073 61.2996 17.3393 60.9636 17.134 60.7582C16.938 60.5436 16.6533 60.4362 16.28 60.4362C16.1307 60.4362 16.014 60.4409 15.93 60.4502L15.86 60.4642C15.9533 61.0429 16 61.6122 16 62.1722C16 62.6389 15.888 63.0636 15.664 63.4462C15.44 63.8196 15.132 64.1136 14.74 64.3282C14.348 64.5336 13.9 64.6362 13.396 64.6362C12.9013 64.6362 12.4347 64.5289 11.996 64.3142C11.5573 64.0996 11.2027 63.8009 10.932 63.4182C10.6613 63.0262 10.526 62.5782 10.526 62.0742C10.526 61.3556 10.8013 60.7536 11.352 60.2682C11.9027 59.7829 12.626 59.4889 13.522 59.3862L15.776 59.1482C16.0373 59.1296 16.224 59.1202 16.336 59.1202C17.008 59.1202 17.54 59.2836 17.932 59.6102C18.324 59.9276 18.6367 60.4082 18.87 61.0522C19.1033 61.6962 19.346 62.6249 19.598 63.8382L18.184 64.1042ZM13.382 63.3342C13.746 63.3342 14.0307 63.2316 14.236 63.0262C14.4413 62.8209 14.544 62.5362 14.544 62.1722C14.544 61.6309 14.4973 61.1082 14.404 60.6042L13.704 60.6742C13.1533 60.7302 12.7287 60.8842 12.43 61.1362C12.1313 61.3882 11.982 61.7056 11.982 62.0882C11.982 62.4709 12.122 62.7742 12.402 62.9982C12.6727 63.2222 12.9993 63.3342 13.382 63.3342ZM18.184 58.627L18.002 57.941C17.862 57.4276 17.7313 57.031 17.61 56.751C17.4887 56.4616 17.3207 56.233 17.106 56.065C16.9007 55.8876 16.6253 55.799 16.28 55.799C16.2147 55.799 16.098 55.8083 15.93 55.827L11.898 56.387L11.702 55.099L14.67 54.693L14.964 54.651L15.762 54.553C15.986 54.525 16.1913 54.511 16.378 54.511C17.218 54.511 17.862 54.7723 18.31 55.295C18.758 55.8083 19.122 56.5783 19.402 57.605L19.584 58.291L18.184 58.627ZM18.184 53.8145L18.002 53.1285C17.862 52.6151 17.7313 52.2185 17.61 51.9385C17.4887 51.6491 17.3207 51.4205 17.106 51.2525C16.9007 51.0751 16.6253 50.9865 16.28 50.9865C16.2147 50.9865 16.098 50.9958 15.93 51.0145L11.898 51.5745L11.702 50.2865L14.67 49.8805L14.964 49.8385L15.762 49.7405C15.986 49.7125 16.1913 49.6985 16.378 49.6985C17.218 49.6985 17.862 49.9598 18.31 50.4825C18.758 50.9958 19.122 51.7658 19.402 52.7925L19.584 53.4785L18.184 53.8145ZM8.636 51.8685L8.636 50.3285L10.176 50.3285L10.176 51.8685L8.636 51.8685ZM18.184 49.002L18.002 48.316C17.862 47.8026 17.7313 47.406 17.61 47.126C17.4887 46.8366 17.3207 46.608 17.106 46.44C16.9007 46.2626 16.6253 46.174 16.28 46.174C16.2147 46.174 16.098 46.1833 15.93 46.202L11.898 46.762L11.702 45.474L14.67 45.068L14.964 45.026L15.762 44.928C15.986 44.9 16.1913 44.886 16.378 44.886C17.218 44.886 17.862 45.1473 18.31 45.67C18.758 46.1833 19.122 46.9533 19.402 47.98L19.584 48.666L18.184 49.002Z" fill="white"/>
</svg>
