<svg width="32" height="32" viewBox="0 0 32 32" fill="none" xmlns="http://www.w3.org/2000/svg">
    <rect width="32" height="32" rx="4" fill="#D9D9D9" fill-opacity="0.5"/>
    <path d="M9.21027 15.44H11.4903V16.592H9.21027V19.136H7.93827V16.592H5.64627V15.44H7.93827V12.932H9.21027V15.44ZM12.4139 14.384C12.4139 13.936 12.5179 13.528 12.7259 13.16C12.9419 12.784 13.2299 12.488 13.5899 12.272C13.9579 12.048 14.3579 11.936 14.7899 11.936C15.2059 11.936 15.5859 12.04 15.9299 12.248C16.2739 12.448 16.5539 12.728 16.7699 13.088C16.9939 13.448 17.1299 13.852 17.1779 14.3L17.7779 19.916L16.4699 20.06L16.1219 16.784H14.7899C14.3579 16.784 13.9579 16.68 13.5899 16.472C13.2299 16.256 12.9419 15.964 12.7259 15.596C12.5179 15.228 12.4139 14.824 12.4139 14.384ZM13.7219 14.384C13.7219 14.648 13.8259 14.88 14.0339 15.08C14.2419 15.272 14.4939 15.368 14.7899 15.368H15.9659L15.8699 14.444C15.8299 14.132 15.7099 13.876 15.5099 13.676C15.3179 13.476 15.0779 13.376 14.7899 13.376C14.4859 13.376 14.2299 13.476 14.0219 13.676C13.8219 13.876 13.7219 14.112 13.7219 14.384ZM18.7701 19.628L21.4821 12.092H22.7181L25.4061 19.628L24.1701 20.12L22.0941 14.288L20.0061 20.12L18.7701 19.628Z" fill="black"/>
</svg>
