<svg width="38" height="33" viewBox="0 0 38 33" fill="none" xmlns="http://www.w3.org/2000/svg">
    <path d="M15.2874 0.00146925C15.2874 0.00230798 15.2874 0.00314684 15.2874 0.00398558C15.279 0.00465563 15.2706 0.00549436 15.2622 0.00650162C15.2538 0.00717167 15.2454 0.00801069 15.237 0.00901795C15.2333 0.00982187 15.2295 0.0106605 15.2257 0.011534C15.188 0.0177958 15.151 0.0274814 15.115 0.0404705C15.1116 0.0421179 15.1083 0.0437957 15.1049 0.0455032C15.0943 0.0494137 15.0839 0.053609 15.0735 0.0580842L0.538555 6.27314C0.387214 6.29514 0.249071 6.37152 0.149965 6.488C0.0508581 6.60447 -0.0024238 6.75306 8.47058e-05 6.90597V25.7801C-0.000651527 25.8698 0.0177936 25.9586 0.0541834 26.0405C0.0550062 26.0431 0.055845 26.0456 0.0566996 26.0481C0.062225 26.0596 0.0680989 26.0709 0.0743131 26.0821C0.14191 26.2178 0.256291 26.3246 0.396389 26.3827L15.0735 32.6582C15.0989 32.6683 15.125 32.6767 15.1515 32.6834C15.1573 32.6847 15.1632 32.686 15.1691 32.6871C15.1816 32.6909 15.1942 32.6942 15.2068 32.6972C15.211 32.6981 15.2152 32.6989 15.2194 32.6997C15.2311 32.7017 15.2429 32.7034 15.2547 32.7047C15.326 32.7136 15.3983 32.7102 15.4685 32.6947C15.4829 32.6922 15.4972 32.6893 15.5113 32.6859C15.5159 32.6843 15.5206 32.6826 15.5251 32.6808C15.526 32.6808 15.5268 32.6808 15.5277 32.6808C15.5503 32.6745 15.5726 32.667 15.5943 32.6582L22.9568 29.5104C23.7343 30.6315 24.8051 31.5172 26.0522 32.0706C27.2992 32.624 28.6744 32.8238 30.0274 32.6481C31.6813 32.4286 33.2134 31.6595 34.3776 30.4643C35.5417 29.2691 36.2703 27.7173 36.4462 26.0582L37.1105 26.7212L38 25.8317L35.7757 23.6086L33.5513 25.8317L34.4408 26.7212L35.1667 25.9965C35.0118 27.3601 34.4054 28.6329 33.4442 29.6124C32.4829 30.5919 31.2218 31.222 29.8613 31.4026C28.3755 31.5995 26.8689 31.2487 25.6229 30.4156C24.377 29.5825 23.4771 28.3242 23.0914 26.8759C22.7017 25.4289 22.8521 23.8895 23.5145 22.5453C24.1769 21.201 25.306 20.1439 26.6909 19.5714C28.0753 18.9963 29.6218 18.945 31.0413 19.4271C32.4609 19.9091 33.6563 20.8915 34.4043 22.1907L34.7189 22.733L35.8096 22.1039L35.4951 21.5617C35.0413 20.7744 34.4469 20.0772 33.7413 19.5047C32.8435 18.7847 31.791 18.2825 30.6665 18.0377C30.6672 18.0205 30.6672 18.0033 30.6665 17.9861V6.90597C30.6689 6.75421 30.6164 6.60669 30.5186 6.49062C30.4208 6.37455 30.2843 6.29775 30.1343 6.2744L15.5943 0.0580842C15.4984 0.0137204 15.3928 -0.00575076 15.2874 0.00146925ZM15.3339 1.31368L18.4201 2.63343L5.34956 8.22321C5.33598 8.22778 5.32255 8.23282 5.3093 8.23831L2.22442 6.92107L15.3339 1.31368ZM20.0179 3.31659L23.7595 4.91816L10.4449 10.6124C10.3199 10.6661 10.2156 10.7588 10.1478 10.8768C10.08 10.9947 10.0522 11.1315 10.0687 11.2666C10.0669 11.2867 10.0661 11.3068 10.0662 11.327V18.0578L8.70242 16.0109C8.61739 15.8832 8.4886 15.791 8.34031 15.7516C8.19202 15.7122 8.03444 15.7283 7.89723 15.797L6.29189 16.5997V9.18692L20.0179 3.31659ZM25.3573 5.60131L28.4434 6.92107L15.3339 12.5259L12.2503 11.2087L25.3195 5.61893C25.3323 5.61347 25.3449 5.6076 25.3573 5.60131ZM1.25819 7.87471L5.03252 9.48887V17.6175C5.03263 17.7246 5.06008 17.8299 5.11228 17.9234C5.16447 18.0169 5.23968 18.0956 5.33077 18.1519C5.42187 18.2082 5.52584 18.2404 5.63282 18.2453C5.73981 18.2502 5.84627 18.2276 5.94213 18.1799L7.96266 17.1696L10.1367 20.4306C10.2057 20.5636 10.3199 20.6675 10.4587 20.7238C10.4773 20.731 10.4962 20.7373 10.5154 20.7426C10.5162 20.7435 10.517 20.7443 10.5179 20.7452C10.5577 20.7567 10.5986 20.7643 10.6399 20.7678C10.6612 20.7697 10.6827 20.7706 10.7041 20.7703C10.737 20.7695 10.7698 20.7662 10.8022 20.7603C10.8316 20.7556 10.8606 20.7489 10.889 20.7401C10.8962 20.7373 10.9033 20.7344 10.9104 20.7313C10.9223 20.7275 10.934 20.7233 10.9456 20.7187C10.9465 20.7179 10.9473 20.7171 10.9481 20.7162C10.9666 20.7087 10.9846 20.7003 11.0022 20.6911C11.0031 20.6902 11.0039 20.6894 11.0048 20.6886C11.115 20.6273 11.2043 20.5344 11.2611 20.4217C11.3178 20.3091 11.3394 20.182 11.3231 20.057V12.1812L14.7049 13.628V31.1321L1.25819 25.3826V7.87471ZM29.4084 7.87723V17.8628C28.3146 17.8053 27.2218 17.9919 26.209 18.4089C23.5544 19.5084 21.861 22.0045 21.6584 24.7384L21.281 24.9007L17.6111 26.4708C17.5309 26.5002 17.4575 26.5456 17.3954 26.6043C17.3333 26.663 17.2839 26.7337 17.25 26.8122C17.2162 26.8906 17.1986 26.9751 17.1985 27.0605C17.1984 27.1459 17.2157 27.2305 17.2493 27.309C17.2829 27.3876 17.3322 27.4584 17.3941 27.5173C17.456 27.5762 17.5292 27.6218 17.6093 27.6514C17.6894 27.6811 17.7748 27.6941 17.8601 27.6897C17.9454 27.6853 18.0289 27.6635 18.1055 27.6258L21.676 26.0997C21.7144 26.4719 21.7808 26.8408 21.8748 27.203C21.9881 27.6258 22.139 28.0296 22.3177 28.4146L15.963 31.1321V13.6268L29.4084 7.87723ZM26.9488 21.6787C25.8517 21.6787 25.2805 22.3291 25.2805 23.4677V24.1597H26.3398V23.3973C26.3398 22.889 26.5613 22.694 26.9173 22.694C27.2734 22.694 27.4961 22.8663 27.4961 23.508C27.4961 25.5612 25.2818 25.9072 25.2818 28.0019V28.8763H28.5151V27.8598H26.3977C26.3877 27.8094 26.3877 27.7579 26.3877 27.7063C26.3877 26.5375 28.6145 25.7059 28.6145 23.4677C28.6145 22.3291 28.0458 21.6787 26.9475 21.6787H26.9488ZM31.0829 21.7605L29.0473 26.569V27.5868H31.2037V28.8763H32.302V27.5868H32.8304V26.569H32.302V21.7605H31.0829ZM20.5953 22.7254C20.5928 22.7263 20.5903 22.7271 20.5878 22.7279C20.5104 22.732 20.4345 22.7504 20.3638 22.782L19.4454 23.1758L18.5283 23.5684L17.6111 23.9596C17.4576 24.0252 17.3364 24.1491 17.2743 24.3039C17.2121 24.4588 17.214 24.6321 17.2796 24.7856C17.3451 24.9391 17.469 25.0602 17.6239 25.1224C17.7788 25.1846 17.952 25.1827 18.1055 25.1171L19.0227 24.7233L19.9411 24.3333L20.8583 23.9395C20.9977 23.8851 21.1132 23.7827 21.184 23.6508C21.2547 23.5188 21.2761 23.366 21.2443 23.2197C21.2124 23.0734 21.1295 22.9433 21.0103 22.8527C20.8911 22.7621 20.7448 22.717 20.5953 22.7254ZM31.2024 23.8955V26.569H30.0752L31.2024 23.8955Z" fill="url(#paint0_linear_176_446)"/>
    <defs>
        <linearGradient id="paint0_linear_176_446" x1="19" y1="0" x2="19" y2="32.71" gradientUnits="userSpaceOnUse">
            <stop stop-color="#FFC300"/>
            <stop offset="1" stop-color="#F9AD33"/>
        </linearGradient>
    </defs>
</svg>
