<svg width="16" height="17" viewBox="0 0 16 17" fill="none" xmlns="http://www.w3.org/2000/svg">
    <path d="M6.15838 0.302226C4.15001 0.953245 2.58212 2.58674 2.0278 4.63259L1.98297 4.79804C1.62368 6.12407 1.55767 7.51305 1.78956 8.86744L1.81207 8.99889C1.83212 9.11599 1.77191 9.23249 1.66797 9.28919C0.972296 9.66868 0.5 10.4091 0.5 11.2604C0.5 12.3266 1.24755 13.2453 2.28759 13.4572L2.65518 13.5321C6.18251 14.2506 9.81749 14.2506 13.3448 13.5321L13.7124 13.4572C14.7525 13.2453 15.5 12.3266 15.5 11.2604C15.5 10.4177 15.0372 9.68362 14.353 9.30077C14.2371 9.2359 14.1698 9.10508 14.1922 8.97369L14.2161 8.83426C14.4444 7.50113 14.3849 6.13428 14.0417 4.82624L13.9793 4.58835C13.45 2.57084 11.9398 0.959898 9.96707 0.308375C8.73494 -0.098551 7.39272 -0.0978893 6.15838 0.302226Z" fill="url(#paint0_linear_688_746)"/>
    <path d="M5.0091 13.9034C6.99681 14.1269 9.00319 14.1269 10.9909 13.9034C10.9768 14.0967 10.9465 14.2887 10.9001 14.4772L10.8182 14.8106C10.5614 15.855 9.74549 16.6678 8.70388 16.917C8.2411 17.0277 7.7589 17.0277 7.29612 16.917C6.25451 16.6678 5.43863 15.855 5.18182 14.8106L5.09985 14.4772C5.0535 14.2887 5.02317 14.0967 5.0091 13.9034Z" fill="url(#paint1_linear_688_746)"/>
    <defs>
        <linearGradient id="paint0_linear_688_746" x1="8" y1="-1" x2="8" y2="17" gradientUnits="userSpaceOnUse">
            <stop stop-color="#FFC300"/>
            <stop offset="1" stop-color="#F9AD33"/>
        </linearGradient>
        <linearGradient id="paint1_linear_688_746" x1="8" y1="-1" x2="8" y2="17" gradientUnits="userSpaceOnUse">
            <stop stop-color="#FFC300"/>
            <stop offset="1" stop-color="#F9AD33"/>
        </linearGradient>
    </defs>
</svg>
