<svg width="32" height="33" viewBox="0 0 32 33" fill="none" xmlns="http://www.w3.org/2000/svg">
    <defs>
        <linearGradient id="paint0_linear_247_901" x1="6.24" y1="20.2178" x2="6.24" y2="32.7027" gradientUnits="userSpaceOnUse">
            <stop stop-color="#FFC300"/>
            <stop offset="1" stop-color="#F8AA3A"/>
        </linearGradient>
        <linearGradient id="paint1_linear_247_901" x1="11.9731" y1="0" x2="11.9731" y2="14.7685" gradientUnits="userSpaceOnUse">
            <stop stop-color="#FFC300"/>
            <stop offset="1" stop-color="#F8AA3A"/>
        </linearGradient>
        <linearGradient id="paint2_linear_247_901" x1="29.6549" y1="18.6577" x2="29.6549" y2="21.78" gradientUnits="userSpaceOnUse">
            <stop stop-color="#FFC300"/>
            <stop offset="1" stop-color="#F8AA3A"/>
        </linearGradient>
        <linearGradient id="paint3_linear_247_901" x1="17.1639" y1="8.89478" x2="17.1639" y2="31.1412" gradientUnits="userSpaceOnUse">
            <stop stop-color="#FFC300"/>
            <stop offset="1" stop-color="#F8AA3A"/>
        </linearGradient>
    </defs>
    <path d="M10.6512 30.8731C11.6889 29.8354 12.285 28.5107 12.4395 27.1418C12.6493 25.3205 12.0421 23.4327 10.6512 22.0418C9.8233 21.2139 8.80771 20.662 7.73694 20.4081C5.69473 19.8893 3.43175 20.4301 1.82005 22.0418C0.705116 23.1569 0.09797 24.5808 0.0206954 26.049C-0.0344938 26.6782 0.0206955 27.3295 0.186295 27.9587C0.440188 29.0296 0.992128 30.0452 1.82005 30.8731C4.25966 33.3126 8.2116 33.3126 10.6512 30.8731ZM8.57589 25.3094C9.21616 25.3094 9.74603 25.8393 9.74603 26.4796C9.73499 27.1308 9.21616 27.6496 8.56486 27.6607L7.40577 27.6496L7.4168 28.7646C7.40577 29.416 6.88693 29.9347 6.23563 29.9457C5.58433 29.9347 5.06551 29.4158 5.05446 28.7646L5.06551 27.6496L3.90641 27.6607C3.25511 27.6496 2.73629 27.1308 2.72524 26.4796C2.73629 26.1595 2.86875 25.8724 3.07849 25.6626C3.28823 25.453 3.57524 25.3205 3.89538 25.3094H5.06551V24.0951C5.06551 23.7639 5.19798 23.477 5.40771 23.2672C5.61745 23.0574 5.90447 22.9249 6.23563 22.9249C6.8759 22.9249 7.40577 23.4549 7.40577 24.0951V25.3094H8.57589Z" fill="url(#paint0_linear_247_901)"/>
    <path d="M21.6131 2.96618V8.89854H19.2715V2.96618C19.2715 2.54467 18.8968 2.34172 18.6469 2.34172C18.569 2.34172 18.4909 2.35734 18.4127 2.38855L6.03291 7.05638C5.20551 7.36861 4.67472 8.14918 4.67472 9.03904V10.085C3.25408 11.1466 2.33301 12.8482 2.33301 14.7685V9.03904C2.33301 7.18127 3.47264 5.52646 5.20551 4.87078L17.601 0.187348C17.9444 0.0624547 18.3035 0 18.6469 0C20.2081 0 21.6131 1.26454 21.6131 2.96618Z" fill="url(#paint1_linear_247_901)"/>
    <path d="M32.0002 19.4383V20.9994C32.0002 21.421 31.6723 21.7644 31.2351 21.78H28.9559C28.1284 21.78 27.3791 21.1711 27.3167 20.3594C27.2699 19.8754 27.4572 19.4228 27.7695 19.1105C28.0505 18.8138 28.4407 18.6577 28.8622 18.6577H31.2196C31.6723 18.6733 32.0002 19.0168 32.0002 19.4383Z" fill="url(#paint2_linear_247_901)"/>
    <path d="M28.8413 17.0127H30.4336C31.2923 17.0127 31.9948 16.3102 31.9948 15.4516V14.7647C31.9948 11.5331 29.3564 8.89478 26.1248 8.89478H8.2029C6.87594 8.89478 5.65825 9.33189 4.67472 10.0812C3.25408 11.1428 2.33301 12.8445 2.33301 14.7647V17.5435C2.33301 18.1368 2.95746 18.5115 3.51947 18.3241C4.39371 18.0274 5.3148 17.8714 6.23587 17.8714C10.9661 17.8714 14.8222 21.7274 14.8222 26.4577C14.8222 27.5817 14.5256 28.8149 14.0573 29.9078C13.8074 30.4698 14.1978 31.1412 14.8066 31.1412H26.1248C29.3564 31.1412 31.9948 28.5028 31.9948 25.2712V24.9746C31.9948 24.1159 31.2923 23.4134 30.4336 23.4134H29.0754C27.5768 23.4134 26.1405 22.4923 25.7501 21.0405C25.4379 19.8541 25.8127 18.6988 26.5931 17.9495C27.1708 17.3562 27.967 17.0127 28.8413 17.0127ZM20.2862 16.7005H12.4804C11.8404 16.7005 11.3096 16.1697 11.3096 15.5296C11.3096 14.8896 11.8404 14.3587 12.4804 14.3587H20.2862C20.9262 14.3587 21.4571 14.8896 21.4571 15.5296C21.4571 16.1697 20.9262 16.7005 20.2862 16.7005Z" fill="url(#paint3_linear_247_901)"/>
</svg>
