<svg width="27" height="24" viewBox="0 0 27 24" fill="none" xmlns="http://www.w3.org/2000/svg">
    <path d="M20.5721 0H7.71544C3.85844 0 1.28711 1.9285 1.28711 6.42833V11.0053C1.28711 11.481 1.77566 11.7767 2.19993 11.5838C3.45988 11.0053 4.91269 10.7867 6.44263 11.0567C9.82393 11.661 12.3053 14.798 12.2153 18.2307C12.2024 18.7707 12.1253 19.2978 11.9838 19.8121C11.881 20.2107 12.2024 20.5835 12.6138 20.5835H20.5721C24.4291 20.5835 27.0004 18.655 27.0004 14.1552V6.42833C27.0004 1.9285 24.4291 0 20.5721 0ZM14.1438 13.4995C12.3695 13.4995 10.9296 12.0595 10.9296 10.2853C10.9296 8.5111 12.3695 7.07116 14.1438 7.07116C15.918 7.07116 17.3579 8.5111 17.3579 10.2853C17.3579 12.0595 15.918 13.4995 14.1438 13.4995ZM23.4648 12.8567C23.4648 13.3838 23.0277 13.8209 22.5006 13.8209C21.9735 13.8209 21.5363 13.3838 21.5363 12.8567V7.71399C21.5363 7.18687 21.9735 6.74974 22.5006 6.74974C23.0277 6.74974 23.4648 7.18687 23.4648 7.71399V12.8567Z" fill="#0DAE6B"/>
    <path d="M5.14266 12.8584C2.30134 12.8584 0 15.1597 0 18.0011C0 18.9653 0.26999 19.8781 0.745686 20.6495C1.6328 22.1409 3.26559 23.1437 5.14266 23.1437C7.01973 23.1437 8.65253 22.1409 9.53964 20.6495C10.0153 19.8781 10.2853 18.9653 10.2853 18.0011C10.2853 15.1597 7.98398 12.8584 5.14266 12.8584ZM7.0583 18.9396H6.10691V19.9424C6.10691 20.4695 5.66979 20.9067 5.14266 20.9067C4.61554 20.9067 4.17841 20.4695 4.17841 19.9424V18.9396H3.22702C2.6999 18.9396 2.26277 18.5025 2.26277 17.9753C2.26277 17.4482 2.6999 17.0111 3.22702 17.0111H4.17841V16.0983C4.17841 15.5712 4.61554 15.134 5.14266 15.134C5.66979 15.134 6.10691 15.5712 6.10691 16.0983V17.0111H7.0583C7.58543 17.0111 8.02255 17.4482 8.02255 17.9753C8.02255 18.5025 7.59828 18.9396 7.0583 18.9396Z" fill="#0DAE6B"/>
</svg>
