<svg width="38" height="38" viewBox="0 0 38 38" fill="none" xmlns="http://www.w3.org/2000/svg">
    <rect x="0.25" y="0.25" width="37.5" height="37.5" rx="0.75" fill="#FAFDFF" stroke="#67ABEE" stroke-width="0.5"/>
    <path fill-rule="evenodd" clip-rule="evenodd" d="M21 11C21 9.89543 20.1046 9 19 9C17.8954 9 17 9.89543 17 11L17 16H11C9.89543 16 9 16.8954 9 18C9 19.1046 9.89543 20 11 20H17L17 26C17 27.1046 17.8954 28 19 28C20.1046 28 21 27.1046 21 26V20H27C28.1046 20 29 19.1046 29 18C29 16.8954 28.1046 16 27 16H21V11Z" fill="#67ABEE"/>
</svg>
