<svg width="13" height="107" viewBox="0 0 13 107" fill="none" xmlns="http://www.w3.org/2000/svg">
    <path d="M6.75 93C6.75 93.1381 6.86193 93.25 7 93.25C7.13808 93.25 7.25 93.1381 7.25 93L6.75 93ZM6.75 6.02273C6.75 6.1608 6.86193 6.27273 7 6.27273C7.13807 6.27273 7.25 6.1608 7.25 6.02273L6.75 6.02273ZM7.25 10.0682C7.25 9.93011 7.13807 9.81818 7 9.81818C6.86193 9.81818 6.75 9.93011 6.75 10.0682L7.25 10.0682ZM6.75 14.1136C6.75 14.2517 6.86193 14.3636 7 14.3636C7.13807 14.3636 7.25 14.2517 7.25 14.1136L6.75 14.1136ZM7.25 18.1591C7.25 18.021 7.13807 17.9091 7 17.9091C6.86193 17.9091 6.75 18.021 6.75 18.1591L7.25 18.1591ZM6.75 22.2045C6.75 22.3426 6.86193 22.4545 7 22.4545C7.13807 22.4545 7.25 22.3426 7.25 22.2045L6.75 22.2045ZM7.25 26.25C7.25 26.1119 7.13807 26 7 26C6.86193 26 6.75 26.1119 6.75 26.25L7.25 26.25ZM6.75 30.2955C6.75 30.4335 6.86193 30.5455 7 30.5455C7.13807 30.5455 7.25 30.4335 7.25 30.2955L6.75 30.2955ZM7.25 34.3409C7.25 34.2028 7.13807 34.0909 7 34.0909C6.86193 34.0909 6.75 34.2028 6.75 34.3409L7.25 34.3409ZM6.75 38.3864C6.75 38.5244 6.86193 38.6364 7 38.6364C7.13807 38.6364 7.25 38.5244 7.25 38.3864L6.75 38.3864ZM7.25 42.4318C7.25 42.2937 7.13807 42.1818 7 42.1818C6.86193 42.1818 6.75 42.2937 6.75 42.4318L7.25 42.4318ZM6.75 46.4773C6.75 46.6153 6.86193 46.7273 7 46.7273C7.13807 46.7273 7.25 46.6153 7.25 46.4773L6.75 46.4773ZM7.25 50.5227C7.25 50.3847 7.13807 50.2727 7 50.2727C6.86193 50.2727 6.75 50.3847 6.75 50.5227L7.25 50.5227ZM6.75 54.5682C6.75 54.7063 6.86193 54.8182 7 54.8182C7.13807 54.8182 7.25 54.7063 7.25 54.5682L6.75 54.5682ZM7.25 58.6136C7.25 58.4756 7.13807 58.3636 7 58.3636C6.86193 58.3636 6.75 58.4756 6.75 58.6136L7.25 58.6136ZM6.75 62.6591C6.75 62.7972 6.86193 62.9091 7 62.9091C7.13807 62.9091 7.25 62.7972 7.25 62.6591L6.75 62.6591ZM7.25 66.7046C7.25 66.5665 7.13807 66.4546 7 66.4546C6.86193 66.4546 6.75 66.5665 6.75 66.7046L7.25 66.7046ZM6.75 70.75C6.75 70.8881 6.86193 71 7 71C7.13807 71 7.25 70.8881 7.25 70.75L6.75 70.75ZM7.25 74.7955C7.25 74.6574 7.13807 74.5455 7 74.5455C6.86193 74.5455 6.75 74.6574 6.75 74.7955L7.25 74.7955ZM6.75 78.8409C6.75 78.979 6.86193 79.0909 7 79.0909C7.13807 79.0909 7.25 78.979 7.25 78.8409L6.75 78.8409ZM7.25 82.8864C7.25 82.7483 7.13807 82.6364 7 82.6364C6.86193 82.6364 6.75 82.7483 6.75 82.8864L7.25 82.8864ZM6.75 86.9318C6.75 87.0699 6.86193 87.1818 7 87.1818C7.13807 87.1818 7.25 87.0699 7.25 86.9318L6.75 86.9318ZM7.25 90.9773C7.25 90.8392 7.13807 90.7273 7 90.7273C6.86193 90.7273 6.75 90.8392 6.75 90.9773L7.25 90.9773ZM6.75 4L6.75 6.02273L7.25 6.02273L7.25 4L6.75 4ZM6.75 10.0682L6.75 14.1136L7.25 14.1136L7.25 10.0682L6.75 10.0682ZM6.75 18.1591L6.75 22.2045L7.25 22.2045L7.25 18.1591L6.75 18.1591ZM6.75 26.25L6.75 30.2955L7.25 30.2955L7.25 26.25L6.75 26.25ZM6.75 34.3409L6.75 38.3864L7.25 38.3864L7.25 34.3409L6.75 34.3409ZM6.75 42.4318L6.75 46.4773L7.25 46.4773L7.25 42.4318L6.75 42.4318ZM6.75 50.5227L6.75 54.5682L7.25 54.5682L7.25 50.5227L6.75 50.5227ZM6.75 58.6136L6.75 62.6591L7.25 62.6591L7.25 58.6136L6.75 58.6136ZM6.75 66.7046L6.75 70.75L7.25 70.75L7.25 66.7046L6.75 66.7046ZM6.75 74.7955L6.75 78.8409L7.25 78.8409L7.25 74.7955L6.75 74.7955ZM6.75 82.8864L6.75 86.9318L7.25 86.9318L7.25 82.8864L6.75 82.8864ZM6.75 90.9773L6.75 93L7.25 93L7.25 90.9773L6.75 90.9773Z" fill="#00296B"/>
    <circle cx="6.5" cy="5.5" r="5.5" fill="#14D885"/>
    <g filter="url(#filter0_d_193_467)">
        <circle cx="6.5" cy="5.5" r="2.5" fill="white"/>
    </g>
    <circle cx="6.5" cy="96.5" r="5.5" fill="#67ABEE"/>
    <g filter="url(#filter1_d_193_467)">
        <circle cx="6.5" cy="96.5" r="2.5" fill="white"/>
    </g>
    <defs>
        <filter id="filter0_d_193_467" x="0" y="3" width="13" height="13" filterUnits="userSpaceOnUse" color-interpolation-filters="sRGB">
            <feFlood flood-opacity="0" result="BackgroundImageFix"/>
            <feColorMatrix in="SourceAlpha" type="matrix" values="0 0 0 0 0 0 0 0 0 0 0 0 0 0 0 0 0 0 127 0" result="hardAlpha"/>
            <feOffset dy="4"/>
            <feGaussianBlur stdDeviation="2"/>
            <feComposite in2="hardAlpha" operator="out"/>
            <feColorMatrix type="matrix" values="0 0 0 0 0 0 0 0 0 0 0 0 0 0 0 0 0 0 0.25 0"/>
            <feBlend mode="normal" in2="BackgroundImageFix" result="effect1_dropShadow_193_467"/>
            <feBlend mode="normal" in="SourceGraphic" in2="effect1_dropShadow_193_467" result="shape"/>
        </filter>
        <filter id="filter1_d_193_467" x="0" y="94" width="13" height="13" filterUnits="userSpaceOnUse" color-interpolation-filters="sRGB">
            <feFlood flood-opacity="0" result="BackgroundImageFix"/>
            <feColorMatrix in="SourceAlpha" type="matrix" values="0 0 0 0 0 0 0 0 0 0 0 0 0 0 0 0 0 0 127 0" result="hardAlpha"/>
            <feOffset dy="4"/>
            <feGaussianBlur stdDeviation="2"/>
            <feComposite in2="hardAlpha" operator="out"/>
            <feColorMatrix type="matrix" values="0 0 0 0 0 0 0 0 0 0 0 0 0 0 0 0 0 0 0.25 0"/>
            <feBlend mode="normal" in2="BackgroundImageFix" result="effect1_dropShadow_193_467"/>
            <feBlend mode="normal" in="SourceGraphic" in2="effect1_dropShadow_193_467" result="shape"/>
        </filter>
    </defs>
</svg>
