<svg width="24" height="24" viewBox="0 0 24 24" fill="none" xmlns="http://www.w3.org/2000/svg">
    <g clip-path="url(#clip0_219_429)">
        <circle cx="12" cy="13" r="8" fill="white"/>
        <path d="M16 6.07209C17.2057 6.76821 18.2088 7.76692 18.9103 8.96951C19.6118 10.1721 19.9872 11.5369 19.9996 12.9291C20.012 14.3212 19.6609 15.6925 18.9809 16.9074C18.301 18.1223 17.3157 19.1387 16.1226 19.8562C14.9295 20.5736 13.5698 20.9673 12.1779 20.9983C10.7861 21.0292 9.41021 20.6965 8.18636 20.0328C6.96251 19.3691 5.93304 18.3976 5.19971 17.2142C4.46637 16.0307 4.05457 14.6764 4.005 13.2851L4 13.0001L4.005 12.7151C4.05419 11.3358 4.45937 9.99277 5.18115 8.81642C5.90292 7.64008 6.91675 6.67046 8.12409 6.00182C9.33143 5.33318 10.6912 4.98825 12.0713 5.00056C13.4514 5.01288 14.8048 5.38201 16 6.07209ZM12 10.0001C11.7348 10.0001 11.4804 10.1054 11.2929 10.293C11.1054 10.4805 11 10.7349 11 11.0001V12.0001H10L9.883 12.0071C9.6299 12.0372 9.39785 12.1628 9.23426 12.3583C9.07067 12.5537 8.98789 12.8043 9.00283 13.0587C9.01776 13.3131 9.1293 13.5523 9.31463 13.7272C9.49997 13.9022 9.74512 13.9998 10 14.0001H11V15.0001L11.007 15.1171C11.0371 15.3702 11.1627 15.6022 11.3582 15.7658C11.5536 15.9294 11.8042 16.0122 12.0586 15.9973C12.313 15.9823 12.5522 15.8708 12.7272 15.6855C12.9021 15.5001 12.9997 15.255 13 15.0001V14.0001H14L14.117 13.9931C14.3701 13.963 14.6021 13.8374 14.7657 13.6419C14.9293 13.4465 15.0121 13.1959 14.9972 12.9415C14.9822 12.687 14.8707 12.4479 14.6854 12.2729C14.5 12.098 14.2549 12.0004 14 12.0001H13V11.0001L12.993 10.8831C12.9643 10.6398 12.8474 10.4156 12.6644 10.2528C12.4813 10.09 12.2449 10.0001 12 10.0001Z" fill="url(#paint0_linear_219_429)"/>
        <path d="M6.41215 3.19105C6.61781 3.03833 6.87423 2.97036 7.12853 3.00115C7.38283 3.03194 7.61562 3.15914 7.77889 3.35653C7.94216 3.55391 8.02346 3.80642 8.00601 4.06199C7.98857 4.31755 7.87372 4.55668 7.68515 4.73005L7.58815 4.81005L4.83815 6.81005C4.63257 6.96517 4.37507 7.03499 4.11929 7.00497C3.86351 6.97496 3.62917 6.84741 3.46508 6.64892C3.301 6.45042 3.21982 6.19627 3.23846 5.93941C3.25711 5.68255 3.37413 5.44278 3.56515 5.27005L3.66215 5.19005L6.41215 3.19105Z" fill="#051F7D"/>
        <path d="M16.191 3.41193C16.3342 3.21496 16.5444 3.07702 16.7821 3.02399C17.0198 2.97097 17.2686 3.0065 17.482 3.12393L17.588 3.19093L20.338 5.19093C20.5437 5.34052 20.6846 5.56284 20.7322 5.81266C20.7797 6.06249 20.7303 6.32104 20.594 6.53573C20.4577 6.75041 20.2447 6.90509 19.9983 6.96829C19.752 7.03149 19.4908 6.99847 19.268 6.87593L19.162 6.80893L16.412 4.80893C16.3058 4.73165 16.2159 4.63421 16.1474 4.52218C16.0789 4.41015 16.0331 4.28572 16.0127 4.156C15.9922 4.02627 15.9976 3.8938 16.0283 3.76613C16.0591 3.63846 16.1137 3.51811 16.191 3.41193Z" fill="#051F7D"/>
    </g>
    <defs>
        <linearGradient id="paint0_linear_219_429" x1="12" y1="5.00024" x2="12" y2="21.0002" gradientUnits="userSpaceOnUse">
            <stop stop-color="#051F7D"/>
            <stop offset="1" stop-color="#00296B"/>
        </linearGradient>
        <clipPath id="clip0_219_429">
            <rect width="24" height="24" fill="white"/>
        </clipPath>
    </defs>
</svg>
