<svg width="20" height="22" viewBox="0 0 20 22" fill="none" xmlns="http://www.w3.org/2000/svg">
    <path d="M13.0002 6.00045L6.50019 12.5005C6.10237 12.8983 5.87887 13.4378 5.87887 14.0005C5.87887 14.5631 6.10237 15.1026 6.50019 15.5005C6.89802 15.8983 7.43758 16.1218 8.00019 16.1218C8.5628 16.1218 9.10237 15.8983 9.50019 15.5005L16.0002 9.00045C16.7958 8.2048 17.2428 7.12567 17.2428 6.00045C17.2428 4.87523 16.7958 3.7961 16.0002 3.00045C15.2045 2.2048 14.1254 1.75781 13.0002 1.75781C11.875 1.75781 10.7958 2.2048 10.0002 3.00045L3.50019 9.50045C2.30672 10.6939 1.63623 12.3126 1.63623 14.0005C1.63623 15.6883 2.30672 17.307 3.50019 18.5005C4.69366 19.6939 6.31236 20.3644 8.00019 20.3644C9.68802 20.3644 11.3067 19.6939 12.5002 18.5005L19.0002 12.0005" stroke="#051F7D" stroke-width="2" stroke-linecap="round" stroke-linejoin="round"/>
</svg>
