<svg width="27" height="28" viewBox="0 0 27 28" fill="none" xmlns="http://www.w3.org/2000/svg">
    <path d="M7.39245 2.89288V0.964292C7.39245 0.437146 6.95531 0 6.42816 0C5.90101 0 5.46387 0.437146 5.46387 0.964292V2.97002C5.7853 2.93145 6.08101 2.89288 6.42816 2.89288H7.39245Z" fill="#7C3AED"/>
    <path d="M17.6791 2.97002V0.964292C17.6791 0.437146 17.2419 0 16.7148 0C16.1876 0 15.7505 0.437146 15.7505 0.964292V2.89288H16.7148C17.0619 2.89288 17.3576 2.93145 17.6791 2.97002Z" fill="#7C3AED"/>
    <path d="M24.8016 17.6378C23.8116 16.8535 22.5645 16.3906 21.2145 16.3906C19.8645 16.3906 18.5916 16.8663 17.6016 17.6635C16.2644 18.7178 15.4287 20.3635 15.4287 22.1764C15.4287 23.2564 15.7373 24.2978 16.2644 25.1464C16.6759 25.815 17.203 26.4064 17.833 26.8564C18.7844 27.5507 19.9416 27.9621 21.2145 27.9621C22.6802 27.9621 24.0045 27.4221 25.0202 26.5221C25.4702 26.1493 25.8559 25.6864 26.1645 25.1593C26.6916 24.2978 27.0002 23.2564 27.0002 22.1764C27.0002 20.3378 26.1388 18.6921 24.8016 17.6378ZM21.2145 24.9278C21.2145 23.4107 19.9802 22.1764 18.463 22.1764C19.9802 22.1764 21.2145 20.9421 21.2145 19.4249C21.2145 20.9421 22.4488 22.1764 23.9659 22.1764C22.4488 22.1764 21.2145 23.4107 21.2145 24.9278Z" fill="#7C3AED"/>
    <path d="M17.6787 2.96582V4.81726C17.6787 5.3444 17.2415 5.78155 16.7144 5.78155C16.1873 5.78155 15.7501 5.3444 15.7501 4.81726V2.88867H7.39291V4.81726C7.39291 5.3444 6.95576 5.78155 6.42861 5.78155C5.90147 5.78155 5.46432 5.3444 5.46432 4.81726V2.96582C1.67144 3.31296 0 5.75583 0 9.31729V20.2459C0 24.1031 1.92858 26.6745 6.42861 26.6745H11.7386C12.7158 26.6745 13.3715 25.5817 13.1272 24.6302C12.9472 23.936 12.8572 23.216 12.8572 22.4959C12.8572 19.8216 14.0529 17.3531 16.123 15.7202C17.6273 14.4987 19.5558 13.8173 21.5359 13.8173H21.5873C22.3973 13.8173 23.143 13.2259 23.143 12.4159V9.31729C23.143 5.75583 21.4716 3.31296 17.6787 2.96582ZM9.00006 19.9245H6.42861C5.90147 19.9245 5.46432 19.4874 5.46432 18.9602C5.46432 18.4331 5.90147 17.9959 6.42861 17.9959H9.00006C9.52721 17.9959 9.96435 18.4331 9.96435 18.9602C9.96435 19.4874 9.52721 19.9245 9.00006 19.9245ZM12.8572 13.4959H6.42861C5.90147 13.4959 5.46432 13.0587 5.46432 12.5316C5.46432 12.0044 5.90147 11.5673 6.42861 11.5673H12.8572C13.3844 11.5673 13.8215 12.0044 13.8215 12.5316C13.8215 13.0587 13.3844 13.4959 12.8572 13.4959Z" fill="#7C3AED"/>
</svg>
