<svg width="24" height="24" viewBox="0 0 24 24" fill="none" xmlns="http://www.w3.org/2000/svg">
    <rect width="24" height="24" rx="2" fill="white"/>
    <path d="M13.2022 14.7273L14.5918 16.1169C14.8847 16.4098 15.3504 16.4098 15.6509 16.1244C15.7335 16.0418 15.8161 15.9667 15.8988 15.884C16.6724 15.1028 17.371 14.2841 17.9945 13.4278C18.6104 12.5715 19.1061 11.7152 19.4667 10.8664C19.8197 10.0101 20 9.19137 20 8.41018C20 7.89941 19.9099 7.41116 19.7296 6.96048C19.5493 6.50228 19.2639 6.08164 18.8658 5.70607C18.385 5.23285 17.8592 5 17.3034 5C17.0931 5 16.8828 5.04507 16.695 5.13521C16.4997 5.22534 16.3269 5.36055 16.1917 5.55584L14.4491 8.01208C14.3139 8.19986 14.2162 8.37262 14.1486 8.53787C14.081 8.69561 14.0435 8.85335 14.0435 8.99607C14.0435 9.17635 14.096 9.35662 14.2012 9.52938C14.2988 9.70214 14.4416 9.88242 14.6218 10.0627L15.1927 10.6561C15.2753 10.7387 15.3129 10.8364 15.3129 10.9565C15.3129 11.0166 15.3054 11.0692 15.2903 11.1293C15.2678 11.1894 15.2453 11.2345 15.2303 11.2795C15.095 11.5274 14.8622 11.8504 14.5317 12.241C14.1937 12.6316 13.8331 13.0297 13.4425 13.4278C13.3674 13.5029 13.2848 13.578 13.2097 13.6531C12.9092 13.9461 12.9017 14.4268 13.2022 14.7273Z" fill="#051F7D"/>
    <path d="M4.9999 17.2654C4.9999 17.4757 5.03745 17.6935 5.11257 17.9038C5.1351 17.9639 5.15763 18.024 5.18768 18.0841C5.31537 18.3545 5.48063 18.6099 5.69846 18.8503C6.06652 19.2559 6.47213 19.5488 6.93033 19.7366C6.93784 19.7366 6.94535 19.7441 6.95286 19.7441C7.39604 19.9244 7.87677 20.0221 8.39505 20.0221C9.16122 20.0221 9.97996 19.8418 10.8438 19.4737C11.7076 19.1057 12.5714 18.6099 13.4277 17.9865C13.7206 17.7686 14.0136 17.5508 14.2915 17.3179L11.8353 14.8617C11.625 15.0195 11.4372 15.1396 11.2794 15.2223C11.2419 15.2373 11.1968 15.2598 11.1442 15.2824C11.0841 15.3049 11.024 15.3124 10.9564 15.3124C10.8288 15.3124 10.7311 15.2673 10.6485 15.1847L10.0776 14.6213C9.88982 14.4336 9.70955 14.2908 9.53679 14.2007C9.36403 14.0955 9.19126 14.043 9.00348 14.043C8.86076 14.043 8.71053 14.073 8.54528 14.1406C8.38003 14.2082 8.20727 14.3059 8.01948 14.4336L5.53321 16.1987C5.33791 16.3339 5.2027 16.4917 5.12008 16.6795C5.04496 16.8673 4.9999 17.055 4.9999 17.2654Z" fill="#051F7D"/>
</svg>
