<svg width="38" height="37" viewBox="0 0 38 37" fill="none" xmlns="http://www.w3.org/2000/svg">
    <path fill-rule="evenodd" clip-rule="evenodd" d="M18.9906 2.02705e-05C18.9867 0.000770867 18.9827 0.00156183 18.9788 0.00239308C18.9484 0.00403466 18.9183 0.00800104 18.8886 0.0142573C18.8795 0.0156266 18.8704 0.017209 18.8613 0.0190031C18.8565 0.0205249 18.8518 0.0221068 18.8471 0.0237487C18.8331 0.0275895 18.8192 0.0319426 18.8055 0.0367994C18.8008 0.0383212 18.796 0.0399031 18.7913 0.041545C18.7833 0.0453224 18.7754 0.0492781 18.7676 0.0534092C18.7576 0.0578798 18.7477 0.0626274 18.7379 0.0676464L9.70924 3.94725C9.58107 3.97018 9.46399 4.03464 9.37609 4.1307C9.28818 4.22675 9.23432 4.34906 9.22281 4.47877C9.22236 4.48351 9.22196 4.48825 9.22162 4.493C9.22162 4.49458 9.22162 4.49617 9.22162 4.49775C9.21797 4.53562 9.21797 4.57377 9.22162 4.61164V16.0167L0.506163 19.7634C0.426841 19.7775 0.351218 19.8076 0.283906 19.8519C0.216593 19.8961 0.159002 19.9536 0.114644 20.0209C0.111412 20.0256 0.108247 20.0303 0.105152 20.0351C0.104359 20.0359 0.103568 20.0367 0.102779 20.0375C0.101986 20.0383 0.101195 20.0391 0.100407 20.0399C0.055363 20.1071 0.0245483 20.1828 0.00985788 20.2624C-0.00483252 20.342 -0.00308798 20.4237 0.0149842 20.5026V32.2209C0.01497 32.2233 0.01497 32.2256 0.0149842 32.228C0.01497 32.2304 0.01497 32.2327 0.0149842 32.2351C0.0152325 32.2498 0.016024 32.2644 0.017357 32.279C0.0258637 32.3886 0.0646468 32.4937 0.12938 32.5825C0.194113 32.6713 0.282251 32.7404 0.383962 32.7821L9.45535 36.6795C9.55747 36.7497 9.67903 36.7862 9.80297 36.7839C9.92665 36.7869 10.0482 36.7513 10.1506 36.6818L19.0001 32.8793L27.8473 36.6795C27.9494 36.7497 28.071 36.7862 28.1949 36.7839C28.3186 36.7869 28.4401 36.7513 28.5425 36.6818L37.6163 32.7821C37.7318 32.7352 37.8297 32.6531 37.8959 32.5475C37.9621 32.4418 37.9934 32.318 37.9852 32.1936V20.5002C38.0041 20.4175 38.0049 20.3316 37.9877 20.2486C37.9705 20.1655 37.9357 20.087 37.8856 20.0185C37.8413 19.9527 37.7843 19.8964 37.7178 19.853C37.6514 19.8096 37.5769 19.7799 37.4988 19.7658L28.8 16.0262V4.59978C28.8031 4.56025 28.8023 4.52051 28.7976 4.48114C28.7863 4.35123 28.7326 4.22864 28.6447 4.13235C28.5567 4.03606 28.4395 3.97142 28.3112 3.94843L19.2754 0.0629006C19.2144 0.0320714 19.1486 0.0120028 19.0808 0.00357956C19.0701 0.00289561 19.0594 0.00249994 19.0488 0.00239308C19.0294 0.000651716 19.01 -0.000140153 18.9906 2.02705e-05ZM19.0096 1.2422L20.4369 1.85558L12.7394 5.16333L11.3157 4.55114L19.0096 1.2422ZM21.9389 2.49981L23.7778 3.28997L15.8739 6.69026C15.7354 6.74306 15.6218 6.84577 15.5553 6.97817C15.4887 7.11057 15.4742 7.26307 15.5144 7.40567V10.8866L15.028 10.1546C14.9478 10.0342 14.8263 9.94719 14.6865 9.91005C14.5466 9.8729 14.3981 9.88815 14.2687 9.95292L13.5544 10.3112V6.10535L21.9389 2.49981ZM25.2799 3.93657L26.7047 4.54876L19.0096 7.8577L17.5823 7.2455L25.2799 3.93657ZM10.408 5.45282L12.368 6.29399V11.2734C12.3679 11.3747 12.3938 11.4744 12.4431 11.5629C12.4925 11.6514 12.5637 11.7258 12.6499 11.7789C12.7361 11.8321 12.8346 11.8623 12.9358 11.8666C13.037 11.871 13.1377 11.8493 13.2282 11.8037L14.3315 11.2473L15.5773 13.1266C15.6331 13.2394 15.7235 13.3316 15.8351 13.3897C15.9468 13.4478 16.0741 13.4688 16.1986 13.4498C16.323 13.4308 16.4382 13.3727 16.5274 13.2838C16.6166 13.195 16.6753 13.0801 16.6949 12.9558C16.6957 12.9526 16.6965 12.9494 16.6973 12.9463C16.6996 12.9293 16.7012 12.9123 16.702 12.8952C16.702 12.8921 16.702 12.8889 16.702 12.8858C16.703 12.8664 16.703 12.847 16.702 12.8276V8.15786L18.4164 8.897V19.468L10.408 16.0274V5.45282ZM27.6135 5.45282V16.0167L19.6028 19.4597V8.89581L27.6135 5.45282ZM9.80297 17.0572L11.2302 17.6718L3.53273 20.9807L2.10783 20.3661L9.80297 17.0572ZM28.2068 17.062L29.6222 17.6718L21.9246 20.9807L20.5081 20.3709L28.2068 17.062ZM12.7346 18.3172L14.5724 19.1074L6.66725 22.5053C6.55333 22.5545 6.45772 22.6382 6.39387 22.7446C6.33002 22.851 6.30115 22.9748 6.31133 23.0985C6.31095 23.1107 6.31095 23.123 6.31133 23.1353V26.7064L5.82489 25.9708C5.74467 25.8501 5.62301 25.7629 5.4829 25.7257C5.34278 25.6886 5.19391 25.704 5.0644 25.7691L4.3478 26.1286V21.9215L12.7346 18.3172ZM31.1265 18.3172L32.9655 19.1074L25.0592 22.5053C24.9472 22.5533 24.8528 22.6346 24.7887 22.7382C24.7246 22.8418 24.6939 22.9626 24.7009 23.0842C24.7001 23.1012 24.7001 23.1183 24.7009 23.1353V26.704L24.2144 25.972C24.1342 25.8513 24.0126 25.7641 23.8724 25.7269C23.7323 25.6898 23.5835 25.7052 23.4539 25.7703L22.7397 26.1286V21.9215L31.1265 18.3172ZM16.0732 19.7528L17.5005 20.3661L9.80534 23.6763L8.38045 23.0617L16.0732 19.7528ZM34.4651 19.7528L35.8924 20.3661L28.1973 23.6763L26.77 23.0617L34.4651 19.7528ZM1.20141 21.2666L3.16138 22.109V27.0896C3.16168 27.1907 3.18783 27.2901 3.23735 27.3783C3.28686 27.4664 3.35809 27.5405 3.44427 27.5934C3.53045 27.6463 3.62872 27.6763 3.72976 27.6805C3.83079 27.6847 3.93123 27.6631 4.02153 27.6176L5.12728 27.0647L6.40862 28.9986C6.47882 29.1055 6.58173 29.1869 6.70199 29.2306C6.82226 29.2743 6.95342 29.2779 7.07591 29.241C7.19841 29.204 7.30567 29.1284 7.38169 29.0255C7.45772 28.9226 7.49843 28.7979 7.49775 28.6699V23.9729L9.21213 24.7096V35.283L1.20141 31.8412V21.2678V21.2666ZM19.5933 21.2666L21.5533 22.109V27.0896C21.5536 27.1907 21.5798 27.2901 21.6293 27.3783C21.6788 27.4664 21.75 27.5405 21.8362 27.5934C21.9224 27.6463 22.0206 27.6763 22.1217 27.6805C22.2227 27.6847 22.3232 27.6631 22.4135 27.6176L23.5168 27.0647L24.7673 28.9511C24.823 29.0576 24.9098 29.1447 25.0162 29.2008C25.1225 29.2569 25.2434 29.2794 25.3628 29.2652C25.4822 29.2511 25.5945 29.201 25.6847 29.1216C25.775 29.0422 25.839 28.9372 25.8683 28.8206C25.8718 28.8088 25.875 28.797 25.8778 28.785C25.8787 28.7799 25.8795 28.7747 25.8802 28.7696C25.8835 28.7499 25.8859 28.7301 25.8873 28.7103C25.8873 28.7083 25.8873 28.7063 25.8873 28.7043C25.8883 28.6846 25.8883 28.6648 25.8873 28.645V23.9729L27.6017 24.7096V35.283L19.5933 31.84V21.2666ZM36.7988 21.2666V31.84L28.7881 35.2842V24.7108L36.7988 21.2678V21.2666ZM18.4069 21.269V31.84L10.3986 35.2842V24.7108L18.4069 21.269ZM32.7602 28.6652C32.6865 28.6687 32.6141 28.686 32.5467 28.7162L30.2521 29.7009C30.1805 29.7317 30.1156 29.7763 30.0611 29.8321C30.0067 29.888 29.9638 29.954 29.9349 30.0265C29.906 30.0989 29.8916 30.1763 29.8926 30.2543C29.8936 30.3323 29.9099 30.4093 29.9407 30.481C29.9715 30.5527 30.0161 30.6176 30.0719 30.672C30.1278 30.7264 30.1938 30.7693 30.2662 30.7983C30.3387 30.8272 30.4161 30.8416 30.4941 30.8406C30.5721 30.8396 30.6491 30.8232 30.7208 30.7924L33.0141 29.8053C33.1419 29.7512 33.2466 29.654 33.3101 29.5306C33.3736 29.4072 33.3918 29.2655 33.3616 29.1301C33.3315 28.9946 33.2547 28.8741 33.1449 28.7894C33.035 28.7046 32.8989 28.6611 32.7602 28.6664V28.6652ZM34.35 30.4472V30.4496C34.2765 30.4524 34.204 30.4689 34.1365 30.4982L30.2569 32.1082C30.1112 32.1687 29.9955 32.2847 29.9354 32.4306C29.8752 32.5764 29.8754 32.7402 29.936 32.8859C29.9965 33.0316 30.1125 33.1472 30.2583 33.2074C30.4042 33.2676 30.568 33.2674 30.7137 33.2068L34.5933 31.5897C34.7225 31.5373 34.8291 31.441 34.8944 31.3178C34.9597 31.1946 34.9795 31.0523 34.9504 30.9159C34.9212 30.7795 34.8449 30.6578 34.7349 30.5721C34.6249 30.4864 34.4894 30.4421 34.35 30.4472Z" fill="white"/>
</svg>
