<svg width="38" height="32" viewBox="0 0 38 32" fill="none" xmlns="http://www.w3.org/2000/svg">
    <defs>
        <linearGradient id="paint0_linear_247_886" x1="19.5558" y1="0" x2="19.5558" y2="28.4618" gradientUnits="userSpaceOnUse">
            <stop stop-color="#FFC300"/>
            <stop offset="1" stop-color="#F8AA3A"/>
        </linearGradient>
        <linearGradient id="paint1_linear_247_886" x1="7.11101" y1="17.7781" x2="7.11101" y2="32.0001" gradientUnits="userSpaceOnUse">
            <stop stop-color="#FFC300"/>
            <stop offset="1" stop-color="#F8AA3A"/>
        </linearGradient>
    </defs>
    <path d="M28.4446 0H10.6671C5.33383 0 1.77832 2.66663 1.77832 8.88876V15.2176C1.77832 15.8753 2.45387 16.2842 3.04052 16.0176C4.78272 15.2176 6.79158 14.9153 8.90711 15.2887C13.5826 16.1242 17.0137 20.4619 16.8892 25.2085C16.8714 25.9552 16.7648 26.6841 16.5692 27.3952C16.427 27.9463 16.8714 28.4618 17.4403 28.4618H28.4446C33.7779 28.4618 37.3334 25.7952 37.3334 19.5731V8.88876C37.3334 2.66663 33.7779 0 28.4446 0ZM19.5558 18.6664C17.1026 18.6664 15.1115 16.6753 15.1115 14.222C15.1115 11.7687 17.1026 9.77764 19.5558 9.77764C22.0091 9.77764 24.0002 11.7687 24.0002 14.222C24.0002 16.6753 22.0091 18.6664 19.5558 18.6664ZM32.4446 17.7775C32.4446 18.5064 31.8401 19.1108 31.1112 19.1108C30.3824 19.1108 29.7779 18.5064 29.7779 17.7775V10.6665C29.7779 9.93764 30.3824 9.3332 31.1112 9.3332C31.8401 9.3332 32.4446 9.93764 32.4446 10.6665V17.7775Z" fill="url(#paint0_linear_247_886)"/>
    <path d="M7.11101 17.7781C4.88882 17.7781 2.87996 18.827 1.5822 20.4269C0.586658 21.6536 0 23.2002 0 24.8891C0 28.8179 3.19995 32.0001 7.11101 32.0001C10.2043 32.0001 12.8532 30.0268 13.8131 27.2535C14.0798 26.5246 14.222 25.7246 14.222 24.8891C14.222 20.978 11.0398 17.7781 7.11101 17.7781ZM11.3065 27.9824C11.271 28.089 11.1998 28.1957 11.1287 28.2668L9.84875 29.529C9.68875 29.7068 9.47542 29.7779 9.24431 29.7779C9.01321 29.7779 8.7821 29.7068 8.6221 29.529C8.33766 29.2624 8.3021 28.8357 8.47988 28.5157H4.9066C3.76884 28.5157 2.8444 27.5913 2.8444 26.4357V26.258C2.8444 25.7602 3.23551 25.3869 3.7155 25.3869C4.1955 25.3869 4.5866 25.7602 4.5866 26.258V26.4357C4.5866 26.6313 4.72882 26.7913 4.92437 26.7913H8.49766C8.31988 26.4535 8.35544 26.0446 8.63988 25.7602C8.97765 25.4224 9.52875 25.4224 9.84875 25.7602L11.1287 27.0402C11.1998 27.1113 11.271 27.2179 11.3243 27.3246C11.3954 27.5202 11.3954 27.769 11.3065 27.9824ZM11.3776 23.5202C11.3776 24.018 10.9865 24.3913 10.5065 24.3913C10.0265 24.3913 9.63542 24.018 9.63542 23.5202V23.3424C9.63542 23.1469 9.4932 22.9869 9.29765 22.9869H5.74214C5.91992 23.3247 5.88436 23.7335 5.59992 24.018C5.43992 24.178 5.22659 24.2669 4.97771 24.2669C4.76438 24.2669 4.53327 24.178 4.37327 24.018L3.09329 22.738C3.02218 22.6669 2.95107 22.5602 2.89774 22.4536C2.82663 22.2402 2.82663 22.0091 2.89774 21.7958C2.95107 21.7069 3.0044 21.5825 3.09329 21.5114L4.37327 20.2492C4.71104 19.8936 5.26215 19.8936 5.58214 20.2492C5.86658 20.5158 5.90214 20.9425 5.72436 21.2625H9.29765C10.4354 21.2625 11.3598 22.1869 11.3598 23.3424V23.5202H11.3776Z" fill="url(#paint1_linear_247_886)"/>
</svg>
