<svg width="16" height="20" viewBox="0 0 16 20" fill="none" xmlns="http://www.w3.org/2000/svg">
    <path d="M6 10.7083V14.5917M10 10.7083V14.5917M1.29802 10.6172C1.47035 9.54767 1.94027 8.57367 2.62639 7.77989C6.17891 8.4152 9.82109 8.4152 13.3736 7.7799C14.0597 8.57367 14.5296 9.54767 14.702 10.6172L14.7396 10.8505C14.9112 11.9157 14.8462 13.0041 14.5489 14.0429L14.4313 14.454C13.7751 16.7471 11.8194 18.4696 9.40493 18.8812C8.47541 19.0396 7.52455 19.0396 6.59503 18.8812C4.18057 18.4696 2.22491 16.7471 1.5687 14.454L1.45105 14.0429C1.15379 13.0041 1.08879 11.9157 1.26042 10.8505L1.29802 10.6172ZM13.5112 7.75496C9.86934 8.42352 6.13066 8.42352 2.48878 7.75496C1.62523 7.59643 1 6.8639 1 6.01068V5.86432C1 4.78636 1.90011 3.9125 3.01045 3.9125H12.9895C14.0999 3.9125 15 4.78636 15 5.86432V6.01068C15 6.8639 14.3748 7.59643 13.5112 7.75496ZM5.22836 2.79794C5.0776 3.1513 5 3.53003 5 3.9125L11 3.9125C11 3.53003 10.9224 3.1513 10.7716 2.79794C10.6209 2.44458 10.3999 2.1235 10.1213 1.85305C9.84274 1.5826 9.51203 1.36807 9.14805 1.2217C8.78407 1.07533 8.39397 1 8 1C7.60603 1 7.21593 1.07533 6.85195 1.2217C6.48797 1.36807 6.15726 1.5826 5.87868 1.85305C5.6001 2.1235 5.37913 2.44458 5.22836 2.79794Z" stroke="#595959" stroke-width="1.5" stroke-linecap="round"/>
</svg>
