<svg width="16" height="20" viewBox="0 0 16 20" fill="none" xmlns="http://www.w3.org/2000/svg">
    <path d="M6.15838 2.30223C4.15001 2.95325 2.58212 4.58674 2.0278 6.63259L1.98297 6.79804C1.62368 8.12407 1.55767 9.51305 1.78956 10.8674L1.81207 10.9989C1.83212 11.116 1.77191 11.2325 1.66797 11.2892C0.972296 11.6687 0.5 12.4091 0.5 13.2604C0.5 14.3266 1.24755 15.2453 2.28759 15.4572L2.65518 15.5321C6.18251 16.2506 9.81749 16.2506 13.3448 15.5321L13.7124 15.4572C14.7525 15.2453 15.5 14.3266 15.5 13.2604C15.5 12.4177 15.0372 11.6836 14.353 11.3008C14.2371 11.2359 14.1698 11.1051 14.1922 10.9737L14.2161 10.8343C14.4444 9.50113 14.3849 8.13428 14.0417 6.82624L13.9793 6.58835C13.45 4.57084 11.9398 2.9599 9.96707 2.30838C8.73494 1.90145 7.39272 1.90211 6.15838 2.30223Z" fill="#D9D9D9"/>
    <path d="M5.0091 15.9034C6.99681 16.1269 9.00319 16.1269 10.9909 15.9034C10.9768 16.0967 10.9465 16.2887 10.9001 16.4772L10.8182 16.8106C10.5614 17.855 9.74549 18.6678 8.70388 18.917C8.2411 19.0277 7.7589 19.0277 7.29612 18.917C6.25451 18.6678 5.43863 17.855 5.18182 16.8106L5.09985 16.4772C5.0535 16.2887 5.02317 16.0967 5.0091 15.9034Z" fill="#D9D9D9"/>
    <path d="M2.0278 6.63259L2.5104 6.76335L2.0278 6.63259ZM6.15838 2.30223L6.0042 1.82659L6.15838 2.30223ZM1.98297 6.79804L1.50037 6.66728L1.98297 6.79804ZM1.78956 10.8674L2.28239 10.7831H2.28239L1.78956 10.8674ZM1.81207 10.9989L1.31924 11.0833H1.31924L1.81207 10.9989ZM2.28759 15.4572L2.3874 14.9672L2.28759 15.4572ZM2.65518 15.5321L2.755 15.0421H2.755L2.65518 15.5321ZM13.3448 15.5321L13.245 15.0421L13.3448 15.5321ZM13.7124 15.4572L13.8122 15.9471L13.7124 15.4572ZM14.1922 10.9737L14.6851 11.0581L14.1922 10.9737ZM14.2161 10.8343L13.7233 10.7499L14.2161 10.8343ZM14.0417 6.82624L13.5581 6.95313L13.5581 6.95313L14.0417 6.82624ZM13.9793 6.58835L14.4629 6.46146L14.4629 6.46146L13.9793 6.58835ZM9.96707 2.30838L10.1239 1.8336L9.96707 2.30838ZM14.353 11.3008L14.1088 11.7371L14.353 11.3008ZM1.66797 11.2892L1.42852 10.8502L1.66797 11.2892ZM8.5 1C8.5 0.723858 8.27614 0.5 8 0.5C7.72386 0.5 7.5 0.723858 7.5 1H8.5ZM7.5 2.00474C7.5 2.28088 7.72386 2.50474 8 2.50474C8.27614 2.50474 8.5 2.28088 8.5 2.00474H7.5ZM5.0091 15.9034L5.06496 15.4065L4.46674 15.3393L4.51042 15.9397L5.0091 15.9034ZM10.9909 15.9034L11.4896 15.9397L11.5333 15.3393L10.935 15.4065L10.9909 15.9034ZM10.9001 16.4772L11.3857 16.5966L10.9001 16.4772ZM10.8182 16.8106L10.3326 16.6912L10.3326 16.6912L10.8182 16.8106ZM8.70388 18.917L8.82021 19.4032L8.70388 18.917ZM7.29612 18.917L7.17979 19.4032L7.29612 18.917ZM5.18182 16.8106L4.69628 16.93L5.18182 16.8106ZM5.09985 16.4772L5.58539 16.3578L5.09985 16.4772ZM2.5104 6.76335C3.02021 4.88178 4.46368 3.37718 6.31256 2.77786L6.0042 1.82659C3.83634 2.52931 2.14404 4.29169 1.5452 6.50183L2.5104 6.76335ZM2.46557 6.9288L2.5104 6.76335L1.5452 6.50183L1.50037 6.66728L2.46557 6.9288ZM2.28239 10.7831C2.06275 9.50026 2.12528 8.18469 2.46557 6.9288L1.50037 6.66728C1.12208 8.06344 1.05258 9.52584 1.29673 10.9518L2.28239 10.7831ZM2.30489 10.9145L2.28239 10.7831L1.29673 10.9518L1.31924 11.0833L2.30489 10.9145ZM1 13.2604C1 12.5985 1.36666 12.0231 1.90742 11.7281L1.42852 10.8502C0.577928 11.3143 0 12.2197 0 13.2604H1ZM2.3874 14.9672C1.5818 14.8031 1 14.0905 1 13.2604H0C0 14.5627 0.913287 15.6875 2.18778 15.9471L2.3874 14.9672ZM2.755 15.0421L2.3874 14.9672L2.18778 15.9471L2.55537 16.022L2.755 15.0421ZM13.245 15.0421C9.78354 15.7473 6.21645 15.7473 2.755 15.0421L2.55537 16.022C6.14856 16.754 9.85144 16.754 13.4446 16.022L13.245 15.0421ZM13.6126 14.9672L13.245 15.0421L13.4446 16.022L13.8122 15.9471L13.6126 14.9672ZM15 13.2604C15 14.0905 14.4182 14.8031 13.6126 14.9672L13.8122 15.9471C15.0867 15.6875 16 14.5627 16 13.2604H15ZM14.1088 11.7371C14.6407 12.0347 15 12.6051 15 13.2604H16C16 12.2302 15.4336 11.3325 14.5972 10.8644L14.1088 11.7371ZM13.7233 10.7499L13.6994 10.8893L14.6851 11.0581L14.7089 10.9186L13.7233 10.7499ZM13.5581 6.95313C13.8832 8.19219 13.9395 9.48701 13.7233 10.7499L14.7089 10.9186C14.9492 9.51525 14.8866 8.07636 14.5253 6.69936L13.5581 6.95313ZM13.4957 6.71523L13.5581 6.95313L14.5253 6.69936L14.4629 6.46146L13.4957 6.71523ZM9.81027 2.78315C11.6214 3.3813 13.0091 4.86077 13.4957 6.71524L14.4629 6.46146C13.8908 4.2809 12.2582 2.53849 10.1239 1.8336L9.81027 2.78315ZM6.31256 2.77786C7.44691 2.41016 8.6802 2.40993 9.81027 2.78315L10.1239 1.8336C8.78968 1.39297 7.33852 1.39407 6.0042 1.82659L6.31256 2.77786ZM14.5972 10.8644C14.6541 10.8963 14.7006 10.9676 14.6851 11.0581L13.6994 10.8893C13.6389 11.2426 13.8201 11.5755 14.1088 11.7371L14.5972 10.8644ZM1.31924 11.0833C1.30123 10.9781 1.35538 10.8901 1.42852 10.8502L1.90742 11.7281C2.18843 11.5748 2.363 11.2539 2.30489 10.9145L1.31924 11.0833ZM7.5 1V2.00474H8.5V1H7.5ZM4.95324 16.4003C6.97807 16.6279 9.02193 16.6279 11.0468 16.4003L10.935 15.4065C8.98445 15.6258 7.01555 15.6258 5.06496 15.4065L4.95324 16.4003ZM11.3857 16.5966C11.4387 16.3808 11.4735 16.161 11.4896 15.9397L10.4922 15.8671C10.4802 16.0325 10.4542 16.1966 10.4146 16.3578L11.3857 16.5966ZM11.3037 16.93L11.3857 16.5966L10.4146 16.3578L10.3326 16.6912L11.3037 16.93ZM8.82021 19.4032C10.0448 19.1103 11.0024 18.1552 11.3037 16.93L10.3326 16.6912C10.1203 17.5548 9.44615 18.2253 8.58755 18.4307L8.82021 19.4032ZM7.17979 19.4032C7.71905 19.5322 8.28095 19.5322 8.82021 19.4032L8.58755 18.4307C8.20124 18.5231 7.79876 18.5231 7.41245 18.4307L7.17979 19.4032ZM4.69628 16.93C4.99755 18.1551 5.95516 19.1103 7.17979 19.4032L7.41245 18.4307C6.55385 18.2253 5.87971 17.5548 5.66736 16.6912L4.69628 16.93ZM4.61432 16.5966L4.69628 16.93L5.66736 16.6912L5.58539 16.3578L4.61432 16.5966ZM4.51042 15.9397C4.52652 16.161 4.56125 16.3808 4.61432 16.5966L5.58539 16.3578C5.54575 16.1966 5.51981 16.0325 5.50778 15.8671L4.51042 15.9397Z" fill="#595959"/>
</svg>
