<svg width="16" height="16" viewBox="0 0 16 16" fill="none" xmlns="http://www.w3.org/2000/svg">
    <path d="M7.5 0C3.36 0 0 3.36 0 7.5C0 11.64 3.36 15 7.5 15C11.64 15 15 11.64 15 7.5C15 3.36 11.64 0 7.5 0ZM7.5 13.5C4.185 13.5 1.5 10.815 1.5 7.5C1.5 4.185 4.185 1.5 7.5 1.5C10.815 1.5 13.5 4.185 13.5 7.5C13.5 10.815 10.815 13.5 7.5 13.5Z" fill="#FFC300"/>
    <path d="M7.5 11.25C9.57107 11.25 11.25 9.57107 11.25 7.5C11.25 5.42893 9.57107 3.75 7.5 3.75C5.42893 3.75 3.75 5.42893 3.75 7.5C3.75 9.57107 5.42893 11.25 7.5 11.25Z" fill="#FFC300"/>
</svg>
