<svg width="26" height="26" viewBox="0 0 26 26" fill="none" xmlns="http://www.w3.org/2000/svg">
    <path d="M11.0982 1.8541C11.6969 0.0114803 14.3037 0.0114803 14.9024 1.8541L16.5926 7.05593C16.8603 7.87997 17.6282 8.43789 18.4947 8.43789H23.9642C25.9017 8.43789 26.7072 10.9171 25.1398 12.0559L20.7148 15.2708C20.0139 15.7801 19.7206 16.6829 19.9883 17.5069L21.6785 22.7087C22.2772 24.5513 20.1682 26.0836 18.6008 24.9448L14.1759 21.7299C13.4749 21.2206 12.5257 21.2206 11.8247 21.7299L7.39978 24.9448C5.83235 26.0836 3.72339 24.5513 4.3221 22.7087L6.01227 17.5069C6.28002 16.6829 5.9867 15.7801 5.28573 15.2708L0.860793 12.0559C-0.706634 10.9171 0.0989175 8.43789 2.03636 8.43789H7.50589C8.37234 8.43789 9.14025 7.87997 9.408 7.05593L11.0982 1.8541Z" fill="#D9D9D9"/>
</svg>
