<svg width="12" height="13" viewBox="0 0 12 13" fill="none" xmlns="http://www.w3.org/2000/svg">
    <path d="M11.0429 3.57291L6.31383 6.31208C6.12344 6.42263 5.88391 6.42263 5.68738 6.31208L0.958277 3.57291C0.620486 3.37638 0.534503 2.91575 0.792452 2.62709C0.97056 2.42442 1.17323 2.25859 1.38819 2.1419L4.71697 0.299406C5.42943 -0.0998019 6.58406 -0.0998019 7.29649 0.299406L10.6253 2.1419C10.8402 2.25859 11.0429 2.43056 11.221 2.62709C11.4667 2.91575 11.3807 3.37638 11.0429 3.57291Z" fill="#0B784A"/>
    <path d="M5.65034 7.45449V11.6431C5.65034 12.1099 5.17743 12.417 4.75978 12.2143C3.4946 11.594 1.36345 10.4332 1.36345 10.4332C0.614166 10.0094 0 8.94077 0 8.06252V4.89342C0 4.40823 0.509757 4.10115 0.92739 4.34067L5.34326 6.90174C5.52751 7.01843 5.65034 7.22725 5.65034 7.45449Z" fill="#0B784A"/>
    <path d="M6.34985 7.45449V11.6431C6.34985 12.1099 6.82276 12.417 7.24039 12.2143C8.50558 11.594 10.6367 10.4332 10.6367 10.4332C11.386 10.0094 12.0002 8.94077 12.0002 8.06252V4.89342C12.0002 4.40823 11.4904 4.10115 11.0728 4.34067L6.65694 6.90174C6.47269 7.01843 6.34985 7.22725 6.34985 7.45449Z" fill="#0B784A"/>
</svg>
