<svg width="15" height="14" viewBox="0 0 15 14" fill="none" xmlns="http://www.w3.org/2000/svg">
    <path d="M4.06383 0.0253563C4.20035 -0.0557181 4.34541 0.0690047 4.34541 0.238304V11.4701C4.34541 11.6551 4.22942 11.8115 4.07921 11.8979C4.07405 11.9008 4.06893 11.9038 4.06383 11.9069L2.27544 13.0172C1.02737 13.796 0 13.1497 0 11.5755V3.51359C0 2.99159 0.342458 2.34532 0.768628 2.08018L4.06383 0.0253563Z" fill="#0B784A"/>
    <path d="M9.46241 2.12439C9.59202 2.19428 9.67405 2.33815 9.67405 2.49564V13.3938C9.67405 13.6991 9.38106 13.8995 9.1284 13.767L5.89408 12.0705C5.76241 12.0014 5.67871 11.8563 5.67871 11.6972V0.751721C5.67871 0.444442 5.9752 0.244105 6.22809 0.380477L9.46241 2.12439Z" fill="#0B784A"/>
    <path d="M15.0002 2.44595V10.5078C15.0002 11.0298 14.6578 11.6761 14.2316 11.9413L11.5746 13.5991C11.3209 13.7575 11.0049 13.558 11.0049 13.2397V2.31364C11.0049 2.16491 11.0781 2.02758 11.1967 1.95386L12.7248 1.00425C13.9729 0.22541 15.0002 0.871685 15.0002 2.44595Z" fill="#0B784A"/>
</svg>
