<svg width="18" height="14" viewBox="0 0 18 14" fill="none" xmlns="http://www.w3.org/2000/svg">
    <defs>
        <linearGradient id="paint0_linear_0_1" x1="8.22827" y1="0.706055" x2="8.22827" y2="13.136" gradientUnits="userSpaceOnUse">
            <stop stop-color="#0B784A"/>
            <stop offset="1" stop-color="#095435"/>
        </linearGradient>
    </defs>
    <path d="M13.2651 5.86082C12.9114 6.1606 12.7092 6.592 12.7598 7.05263C12.8356 7.8423 13.6694 8.41993 14.5791 8.41993H16.23V9.48013C16.23 11.6736 14.5454 13.136 12.0185 13.136H4.43799C1.91113 13.136 0.226562 11.6736 0.226562 9.48013V4.36192C0.226562 2.37313 1.60791 0.9839 3.75574 0.749925C3.97473 0.720678 4.20215 0.706055 4.43799 0.706055H12.0185C12.2375 0.706055 12.4481 0.713359 12.6503 0.742606C14.8234 0.961958 16.23 2.35851 16.23 4.36192V5.42213H14.478C14.0063 5.42213 13.5768 5.58298 13.2651 5.86082Z" fill="url(#paint0_linear_0_1)"/>
    <path d="M17.0731 6.16767V7.67389C17.0731 8.07603 16.7025 8.40506 16.2308 8.41968H14.5799C13.6703 8.41968 12.8364 7.84206 12.7606 7.05239C12.7101 6.59175 12.9122 6.16036 13.266 5.86058C13.5776 5.58273 14.0072 5.42188 14.4789 5.42188H16.2308C16.7025 5.4365 17.0731 5.76553 17.0731 6.16767Z" fill="#0B784A" stroke="white"/>
</svg>
