<svg width="30" height="30" viewBox="0 0 30 30" fill="none" xmlns="http://www.w3.org/2000/svg">
    <g clip-path="url(#clip0_306_694)">
        <path d="M5 17.5V13.75C5 11.0978 6.05357 8.5543 7.92893 6.67893C9.8043 4.80357 12.3478 3.75 15 3.75C17.6522 3.75 20.1957 4.80357 22.0711 6.67893C23.9464 8.5543 25 11.0978 25 13.75V17.5" stroke="#051F7D" stroke-width="2.5" stroke-linecap="round" stroke-linejoin="round"/>
        <path d="M22.5 23.75C22.5 25.8212 19.1425 27.5 15 27.5" stroke="#051F7D" stroke-width="2.5" stroke-linecap="round" stroke-linejoin="round"/>
        <path d="M5 17.5C5 16.837 5.26339 16.2011 5.73223 15.7322C6.20107 15.2634 6.83696 15 7.5 15H8.75C9.41304 15 10.0489 15.2634 10.5178 15.7322C10.9866 16.2011 11.25 16.837 11.25 17.5V21.25C11.25 21.913 10.9866 22.5489 10.5178 23.0178C10.0489 23.4866 9.41304 23.75 8.75 23.75H7.5C6.83696 23.75 6.20107 23.4866 5.73223 23.0178C5.26339 22.5489 5 21.913 5 21.25V17.5Z" stroke="#051F7D" stroke-width="2.5" stroke-linecap="round" stroke-linejoin="round"/>
        <path d="M18.75 17.5C18.75 16.837 19.0134 16.2011 19.4822 15.7322C19.9511 15.2634 20.587 15 21.25 15H22.5C23.163 15 23.7989 15.2634 24.2678 15.7322C24.7366 16.2011 25 16.837 25 17.5V21.25C25 21.913 24.7366 22.5489 24.2678 23.0178C23.7989 23.4866 23.163 23.75 22.5 23.75H21.25C20.587 23.75 19.9511 23.4866 19.4822 23.0178C19.0134 22.5489 18.75 21.913 18.75 21.25V17.5Z" stroke="#051F7D" stroke-width="2.5" stroke-linecap="round" stroke-linejoin="round"/>
    </g>
    <defs>
        <clipPath id="clip0_306_694">
            <rect width="30" height="30" fill="white"/>
        </clipPath>
    </defs>
</svg>
