<svg width="16" height="19" viewBox="0 0 16 19" fill="none" xmlns="http://www.w3.org/2000/svg">
    <path d="M13.3034 2.86322C14.6803 4.23999 15.4678 6.09831 15.4994 8.04523C15.531 9.99214 14.8041 11.875 13.4725 13.2957L13.3034 13.4707L9.76755 17.0057C9.3189 17.4541 8.71661 17.7151 8.08267 17.736C7.44874 17.7569 6.83057 17.5361 6.35338 17.1182L6.23338 17.0057L2.69671 13.4699C1.29018 12.0634 0.5 10.1557 0.5 8.16655C0.5 6.17741 1.29018 4.26975 2.69671 2.86322C4.10324 1.45669 6.01091 0.666504 8.00005 0.666504C9.98918 0.666504 11.8968 1.45669 13.3034 2.86322ZM8.00005 5.66655C7.67174 5.66655 7.34665 5.73121 7.04334 5.85685C6.74002 5.98249 6.46443 6.16664 6.23228 6.39878C6.00013 6.63093 5.81598 6.90653 5.69035 7.20984C5.56471 7.51316 5.50005 7.83825 5.50005 8.16655C5.50005 8.49485 5.56471 8.81994 5.69035 9.12326C5.81598 9.42657 6.00013 9.70217 6.23228 9.93432C6.46443 10.1665 6.74002 10.3506 7.04334 10.4762C7.34665 10.6019 7.67174 10.6665 8.00005 10.6665C8.66309 10.6665 9.29897 10.4032 9.76781 9.93432C10.2367 9.46548 10.5 8.82959 10.5 8.16655C10.5 7.50351 10.2367 6.86762 9.76781 6.39878C9.29897 5.92994 8.66309 5.66655 8.00005 5.66655Z" stroke="#595959" stroke-linecap="round" stroke-linejoin="round"/>
</svg>
