<svg width="32" height="32" viewBox="0 0 32 32" fill="none" xmlns="http://www.w3.org/2000/svg">
<mask id="mask0_529_2971" style="mask-type:luminance" maskUnits="userSpaceOnUse" x="1" y="1" width="30" height="30">
    <path d="M12.0001 2.66675H4.00008C3.64646 2.66675 3.30732 2.80722 3.05727 3.05727C2.80722 3.30732 2.66675 3.64646 2.66675 4.00008V12.0001C2.66675 12.3537 2.80722 12.6928 3.05727 12.9429C3.30732 13.1929 3.64646 13.3334 4.00008 13.3334H12.0001C12.3537 13.3334 12.6928 13.1929 12.9429 12.9429C13.1929 12.6928 13.3334 12.3537 13.3334 12.0001V4.00008C13.3334 3.64646 13.1929 3.30732 12.9429 3.05727C12.6928 2.80722 12.3537 2.66675 12.0001 2.66675ZM12.0001 18.6667H4.00008C3.64646 18.6667 3.30732 18.8072 3.05727 19.0573C2.80722 19.3073 2.66675 19.6465 2.66675 20.0001V28.0001C2.66675 28.3537 2.80722 28.6928 3.05727 28.9429C3.30732 29.1929 3.64646 29.3334 4.00008 29.3334H12.0001C12.3537 29.3334 12.6928 29.1929 12.9429 28.9429C13.1929 28.6928 13.3334 28.3537 13.3334 28.0001V20.0001C13.3334 19.6465 13.1929 19.3073 12.9429 19.0573C12.6928 18.8072 12.3537 18.6667 12.0001 18.6667ZM28.0001 2.66675H20.0001C19.6465 2.66675 19.3073 2.80722 19.0573 3.05727C18.8072 3.30732 18.6667 3.64646 18.6667 4.00008V12.0001C18.6667 12.3537 18.8072 12.6928 19.0573 12.9429C19.3073 13.1929 19.6465 13.3334 20.0001 13.3334H28.0001C28.3537 13.3334 28.6928 13.1929 28.9429 12.9429C29.1929 12.6928 29.3334 12.3537 29.3334 12.0001V4.00008C29.3334 3.64646 29.1929 3.30732 28.9429 3.05727C28.6928 2.80722 28.3537 2.66675 28.0001 2.66675Z" fill="#555555" stroke="white" stroke-width="2.66667" stroke-linejoin="round"/>
    <path d="M18.6667 18.6667H29.3334M24.0001 24.0001H29.3334M18.6667 29.3334H29.3334" stroke="white" stroke-width="2.66667" stroke-linecap="round" stroke-linejoin="round"/>
</mask>
<g mask="url(#mask0_529_2971)">
    <path d="M0 0H32V32H0V0Z" fill="url(#paint0_linear_529_2971)"/>
</g>
<defs>
    <linearGradient id="paint0_linear_529_2971" x1="16" y1="0" x2="16" y2="32" gradientUnits="userSpaceOnUse">
        <stop stop-color="#FFC300"/>
        <stop offset="1" stop-color="#F9AD33"/>
    </linearGradient>
</defs>
</svg>
