<svg width="27" height="24" viewBox="0 0 27 24" fill="none" xmlns="http://www.w3.org/2000/svg">
    <path d="M5.14261 12.8584C2.30132 12.8584 0 15.1597 0 18.001C0 20.8423 2.30132 23.1436 5.14261 23.1436C7.9839 23.1436 10.2852 20.8423 10.2852 18.001C10.2852 15.1597 7.9839 12.8584 5.14261 12.8584ZM6.42826 17.5896C6.42826 18.3738 6.00399 19.1195 5.33545 19.5181L4.35836 20.1095C4.20408 20.2123 4.02409 20.2509 3.85695 20.2509C3.53554 20.2509 3.21413 20.0838 3.03414 19.7881C2.76415 19.3381 2.90557 18.7338 3.36841 18.4638L4.3455 17.8724C4.4355 17.821 4.49978 17.7053 4.49978 17.6025V16.4068C4.49978 15.8668 4.9369 15.4297 5.46402 15.4297C5.99114 15.4297 6.42826 15.8668 6.42826 16.3939V17.5896Z" fill="#99C9FA"/>
    <path d="M20.5714 0H7.71488C3.85792 0 1.28662 1.92848 1.28662 6.42825V11.0052C1.28662 11.4809 1.77517 11.7766 2.19943 11.5837C3.45937 11.0052 4.91216 10.7866 6.44209 11.0566C9.82335 11.6609 12.3047 14.7978 12.2147 18.2305C12.2018 18.7705 12.1247 19.2976 11.9832 19.8119C11.8804 20.2104 12.2018 20.5833 12.6132 20.5833H20.5714C24.4284 20.5833 26.9997 18.6548 26.9997 14.155V6.42825C26.9997 1.92848 24.4284 0 20.5714 0ZM14.1431 13.4993C12.3689 13.4993 10.929 12.0594 10.929 10.2852C10.929 8.51101 12.3689 7.07108 14.1431 7.07108C15.9173 7.07108 17.3573 8.51101 17.3573 10.2852C17.3573 12.0594 15.9173 13.4993 14.1431 13.4993ZM23.4641 12.8565C23.4641 13.3836 23.027 13.8207 22.4999 13.8207C21.9728 13.8207 21.5356 13.3836 21.5356 12.8565V7.7139C21.5356 7.18679 21.9728 6.74967 22.4999 6.74967C23.027 6.74967 23.4641 7.18679 23.4641 7.7139V12.8565Z" fill="#99C9FA"/>
</svg>
