<svg width="38" height="36" viewBox="0 0 38 36" fill="none" xmlns="http://www.w3.org/2000/svg">
    <path fill-rule="evenodd" clip-rule="evenodd" d="M17.2201 0C17.0627 0 16.9117 0.0625451 16.8003 0.173876C16.689 0.285207 16.6265 0.436204 16.6265 0.59365V5.05077L13.4006 2.70348C13.3036 2.63216 13.1873 2.59199 13.0669 2.58831C12.9794 2.58511 12.8922 2.60133 12.8117 2.63581C8.66088 4.4405 4.51245 6.2452 0.361651 8.04752C0.237087 8.1004 0.13433 8.19426 0.0704061 8.31354C0.00648266 8.43282 -0.0147702 8.57035 0.0101688 8.70336C0.0351079 8.83637 0.104742 8.95687 0.207533 9.04488C0.310325 9.1329 0.440103 9.18316 0.575365 9.18733H0.402019L5.59052 12.957L0.24767 16.8419C0.146963 16.9153 0.0719139 17.0185 0.0331567 17.1369C-0.00560046 17.2554 -0.00609954 17.383 0.0317302 17.5018C0.06956 17.6205 0.1438 17.7243 0.243929 17.7985C0.344059 17.8727 0.464999 17.9135 0.589613 17.9152H0.474444L5.94077 20.2898V29.0805C5.93928 29.1154 5.94087 29.1504 5.94552 29.185C5.92875 29.3149 5.9554 29.4467 6.02132 29.5599C6.08725 29.6731 6.18875 29.7612 6.31002 29.8107L18.6306 35.0705C18.7494 35.1575 18.8962 35.1972 19.0426 35.1821C19.1487 35.176 19.2512 35.1415 19.3395 35.0823L31.6921 29.8107C31.8104 29.7625 31.91 29.6775 31.9761 29.5682C32.0422 29.4589 32.0713 29.3312 32.059 29.204C32.0611 29.1894 32.0627 29.1748 32.0637 29.1601V20.2506L37.5289 17.8784H37.4042C37.5299 17.8788 37.6524 17.8394 37.7542 17.7658C37.856 17.6922 37.9318 17.5881 37.9708 17.4687C38.0097 17.3493 38.0097 17.2205 37.9709 17.1011C37.932 16.9816 37.8562 16.8775 37.7545 16.8039L32.2347 12.7908C32.2277 12.7685 32.2194 12.7467 32.2098 12.7255L37.0492 9.20751H36.8569C36.9941 9.20863 37.1275 9.16216 37.2344 9.076C37.3412 8.98985 37.4149 8.86933 37.4429 8.73496C37.4709 8.60059 37.4515 8.46067 37.3879 8.33902C37.3244 8.21736 37.2206 8.12148 37.0943 8.0677L24.6407 2.65836C24.5675 2.62718 24.4888 2.61103 24.4092 2.61087C24.2717 2.6092 24.1378 2.65537 24.0305 2.74148L21.3709 4.87862V0.594837C21.3709 0.437392 21.3084 0.286394 21.197 0.175063C21.0857 0.0637324 20.9347 0.00118736 20.7773 0.00118736H17.2201V0ZM17.8138 1.1873H20.1812V9.52215C20.1812 9.67675 20.2414 9.82528 20.3492 9.93615C20.457 10.047 20.6037 10.1115 20.7583 10.1158L21.6559 10.1407C21.6606 10.1408 21.6654 10.1408 21.6701 10.1407H22.9548L19.0153 14.2452L15.0569 10.1253H16.3273C16.332 10.1254 16.3368 10.1254 16.3415 10.1253L17.2296 10.1063C17.3854 10.1038 17.534 10.0402 17.6433 9.9291C17.7526 9.81804 17.8138 9.66846 17.8138 9.51265V1.1873ZM12.9767 3.86347L16.5457 6.45772C16.5711 6.4777 16.5982 6.49557 16.6265 6.51115V8.93681L16.3249 8.94868L13.6606 8.93681C13.5159 8.93685 13.3763 8.98971 13.2678 9.08547C13.1594 9.18123 13.0896 9.31329 13.0717 9.45684L6.5736 12.2019L1.7876 8.7219C5.51691 7.10124 9.2474 5.48295 12.9767 3.86347ZM24.4971 3.89078L35.6648 8.74209L31.1008 12.0606L24.9209 9.42004C24.8894 9.29131 24.8157 9.17684 24.7116 9.09486C24.6074 9.01288 24.4788 8.96811 24.3463 8.96768L21.682 8.95818L21.3709 8.94631V6.34493C21.4416 6.32332 21.5077 6.28869 21.5656 6.24282L24.4971 3.89078ZM24.3166 10.4518L30.1439 12.9416L19.0011 17.705L15.4154 16.1734L10.8135 14.206L7.86539 12.9475L13.7318 10.466L18.5855 15.5239C18.6409 15.582 18.7076 15.6281 18.7813 15.6597C18.8551 15.6912 18.9345 15.7075 19.0147 15.7075C19.095 15.7075 19.1744 15.6912 19.2481 15.6597C19.3219 15.6281 19.3885 15.582 19.4439 15.5239L24.3166 10.4518ZM31.4464 13.6753L36.2145 17.1422L31.4095 19.2283C31.2861 19.2402 31.1694 19.2904 31.0759 19.372L25.0254 21.9995L20.1931 18.4863L31.4464 13.6753ZM6.59379 13.6896L10.348 15.2948L14.9512 17.2633L17.8494 18.5041L12.9779 22.0446L7.06633 19.4777C7.01711 19.3766 6.94021 19.2916 6.84458 19.2325C6.74894 19.1735 6.63851 19.1428 6.52611 19.144C6.47049 19.1454 6.41533 19.1546 6.36227 19.1713L1.78879 17.185L6.59379 13.6896ZM19.5947 19.5156L24.5849 23.1452C24.5904 23.1509 24.5959 23.1564 24.6016 23.1618H24.6039C24.6352 23.1844 24.6686 23.2039 24.7037 23.22C24.7045 23.22 24.7053 23.22 24.706 23.22C24.7103 23.224 24.7147 23.228 24.7191 23.2319C24.7507 23.2446 24.7832 23.2545 24.8165 23.2616C24.836 23.2665 24.8559 23.2705 24.8758 23.2735C24.8754 23.2735 24.8762 23.2735 24.8758 23.2735C24.8942 23.2783 24.914 23.2823 24.9328 23.2853C24.9336 23.2853 24.9344 23.2853 24.9352 23.2853C24.9415 23.2854 24.9479 23.2854 24.9542 23.2853C24.9942 23.2846 25.0339 23.2798 25.0729 23.2711C25.0913 23.2672 25.1096 23.2624 25.1275 23.2568C25.1465 23.2499 25.1652 23.2419 25.1833 23.2331C25.1857 23.2331 25.1881 23.2331 25.1905 23.2331L30.8741 20.7659V28.868L19.5947 33.6825V19.5156ZM18.4074 19.5631V33.6825L7.12807 28.868V20.8062L12.8117 23.2758C12.83 23.2827 12.8486 23.2886 12.8675 23.2936C12.8812 23.2989 12.895 23.3037 12.909 23.3079C12.9146 23.308 12.9201 23.308 12.9257 23.3079C12.9449 23.312 12.9643 23.3152 12.9838 23.3174C13.0036 23.3184 13.0234 23.3184 13.0432 23.3174C13.044 23.3174 13.0448 23.3174 13.0456 23.3174C13.0464 23.3174 13.0472 23.3174 13.048 23.3174C13.0681 23.3184 13.0883 23.3184 13.1085 23.3174C13.128 23.3152 13.1475 23.312 13.1667 23.3079C13.2511 23.2912 13.3309 23.2564 13.4006 23.2058L18.4074 19.5631ZM24.3083 26.1455C24.2349 26.1493 24.1628 26.1666 24.0958 26.1966L20.9399 27.5465C20.8637 27.5738 20.7938 27.6164 20.7347 27.6716C20.6755 27.7269 20.6282 27.7937 20.5958 27.8679C20.5634 27.9421 20.5465 28.0221 20.5462 28.1031C20.5459 28.184 20.5621 28.2642 20.5939 28.3387C20.6257 28.4131 20.6724 28.4803 20.7311 28.536C20.7898 28.5918 20.8593 28.6349 20.9353 28.6628C21.0113 28.6907 21.0922 28.7028 21.173 28.6982C21.2539 28.6937 21.3329 28.6727 21.4054 28.6365L24.5624 27.2889C24.6926 27.2363 24.8 27.1393 24.8655 27.015C24.9309 26.8908 24.9502 26.7473 24.9199 26.6102C24.8895 26.473 24.8116 26.3511 24.6998 26.266C24.5881 26.181 24.4498 26.1383 24.3095 26.1455H24.3083ZM27.463 26.9553C27.3892 26.9588 27.3167 26.9762 27.2492 27.0063L24.0958 28.3539L20.9399 29.7039C20.8682 29.7344 20.8032 29.7788 20.7486 29.8345C20.6941 29.8902 20.651 29.9561 20.6219 30.0284C20.5928 30.1007 20.5782 30.1781 20.579 30.256C20.5798 30.334 20.5959 30.411 20.6265 30.4827C20.657 30.5545 20.7014 30.6195 20.7571 30.674C20.8128 30.7286 20.8787 30.7717 20.951 30.8008C21.0233 30.8299 21.1007 30.8445 21.1786 30.8437C21.2566 30.8429 21.3336 30.8267 21.4054 30.7962L24.5624 29.4462L27.7182 28.0963C27.8462 28.0421 27.9511 27.9447 28.0146 27.8211C28.0782 27.6975 28.0964 27.5555 28.066 27.4199C28.0356 27.2843 27.9586 27.1636 27.8484 27.0789C27.7382 26.9942 27.6018 26.9509 27.463 26.9565V26.9553Z" fill="url(#paint0_linear_176_450)"/>
    <defs>
        <linearGradient id="paint0_linear_176_450" x1="19" y1="0" x2="19" y2="35.1852" gradientUnits="userSpaceOnUse">
            <stop stop-color="#FFC300"/>
            <stop offset="1" stop-color="#F9AD33"/>
        </linearGradient>
    </defs>
</svg>
