<svg width="26" height="26" viewBox="0 0 26 26" fill="none" xmlns="http://www.w3.org/2000/svg">
    <path d="M12.0492 2.16312C12.3486 1.24181 13.652 1.24181 13.9513 2.16312L15.6415 7.36494C16.0431 8.60101 17.195 9.43789 18.4947 9.43789H23.9642C24.9329 9.43789 25.3357 10.6775 24.552 11.2469L20.1271 14.4618C19.0756 15.2257 18.6356 16.5798 19.0372 17.8159L20.7274 23.0177C21.0268 23.9391 19.9723 24.7052 19.1886 24.1358L14.7636 20.9209C13.7122 20.1569 12.2884 20.1569 11.2369 20.9209L6.812 24.1358C6.02828 24.7052 4.9738 23.9391 5.27315 23.0177L6.96333 17.8159C7.36495 16.5798 6.92498 15.2257 5.87351 14.4618L1.44858 11.2469C0.664865 10.6775 1.06764 9.43789 2.03636 9.43789H7.50589C8.80556 9.43789 9.95743 8.60101 10.3591 7.36494L12.0492 2.16312Z" fill="white" stroke="#C4C4C4" stroke-width="2"/>
</svg>
