<svg width="15" height="13" viewBox="0 0 15 13" fill="none" xmlns="http://www.w3.org/2000/svg">
    <path fill-rule="evenodd" clip-rule="evenodd" d="M9.22266 1.5C9.22266 0.671573 8.55108 0 7.72266 0C6.89423 0 6.22266 0.671573 6.22266 1.5V4.77747H1.5C0.671573 4.77747 0 5.44905 0 6.27747C0 7.1059 0.671573 7.77747 1.5 7.77747H6.22266V11.5C6.22266 12.3284 6.89423 13 7.72266 13C8.55108 13 9.22266 12.3284 9.22266 11.5V7.77747H13.5C14.3284 7.77747 15 7.1059 15 6.27747C15 5.44905 14.3284 4.77747 13.5 4.77747H9.22266V1.5Z" fill="#051F7D"/>
</svg>
