<svg width="18" height="14" viewBox="0 0 18 14" fill="none" xmlns="http://www.w3.org/2000/svg">
    <path d="M13.1574 5.53923C12.8005 5.86137 12.5965 6.32494 12.6475 6.81993C12.724 7.6685 13.5654 8.28921 14.4834 8.28921H16.1493V9.42848C16.1493 11.7856 14.4494 13.357 11.8995 13.357H4.24982C1.69993 13.357 0 11.7856 0 9.42848V3.92853C0 1.79141 1.39394 0.298568 3.56135 0.0471424C3.78234 0.0157141 4.01183 0 4.24982 0H11.8995C12.1205 0 12.333 0.00784916 12.537 0.0392774C14.7299 0.274989 16.1493 1.7757 16.1493 3.92853V5.06782H14.3814C13.9054 5.06782 13.4719 5.24066 13.1574 5.53923Z" fill="url(#paint0_linear_0_1)"/>
    <path d="M17.0002 5.86783V7.48638C17.0002 7.91852 16.6262 8.27209 16.1502 8.2878H14.4843C13.5663 8.2878 12.7249 7.66709 12.6484 6.81853C12.5974 6.32354 12.8014 5.85997 13.1584 5.53783C13.4728 5.23926 13.9063 5.06641 14.3823 5.06641H16.1502C16.6262 5.08212 17.0002 5.43569 17.0002 5.86783Z" fill="#EF1717" stroke="white"/>
    <defs>
        <linearGradient id="paint0_linear_0_1" x1="8.07466" y1="0" x2="8.07466" y2="13.357" gradientUnits="userSpaceOnUse">
            <stop stop-color="#EF1717"/>
            <stop offset="1" stop-color="#A81414"/>
        </linearGradient>
    </defs>
</svg>
