<svg width="38" height="38" viewBox="0 0 38 38" fill="none" xmlns="http://www.w3.org/2000/svg">
    <rect width="38" height="38" rx="3" fill="#FFDB66"/>
    <g clip-path="url(#clip0_0_1)">
        <path d="M15.0769 25.367C15.6971 25.9861 15.2908 27.0471 14.4163 27.0957C13.8469 27.1278 13.2772 27.0391 12.7446 26.8354C12.2119 26.6318 11.7284 26.3179 11.3256 25.9142C10.9222 25.5114 10.6086 25.028 10.4051 24.4955C10.2017 23.9631 10.113 23.3936 10.1451 22.8245C10.1917 21.9875 11.1635 21.5802 11.7907 22.0889L11.8738 22.1639L15.0769 25.367Z" fill="#FF9600" stroke="#051F7D" stroke-width="2" stroke-linecap="round" stroke-linejoin="round"/>
        <path d="M27.1772 10.8246C28.15 11.7974 28.3263 13.2667 27.7041 14.4189L27.6129 14.5739L27.5886 14.6104C27.9329 15.8459 27.9796 17.1455 27.7249 18.4025C27.4702 19.6596 26.9214 20.8385 26.1233 21.8426L25.9379 22.0685L25.7443 22.2894L23.6437 24.3891L23.5626 24.5026C23.1326 25.1281 22.9523 25.8919 23.057 26.6437L23.0924 26.8474L23.138 27.0349C23.4055 27.9996 22.2736 28.7018 21.5319 28.0999L21.4447 28.0209L9.9809 16.557C9.2442 15.8203 9.96367 14.5861 10.9669 14.8637C11.3945 14.9823 11.8428 15.0058 12.2805 14.9326C12.7181 14.8595 13.1344 14.6914 13.5002 14.4402L13.6178 14.353L15.7468 12.225C16.7265 11.3332 17.9098 10.6951 19.1932 10.3665C20.4766 10.038 21.8209 10.0289 23.1086 10.3402L23.3903 10.4122L23.4278 10.3888C23.9577 10.0614 24.5754 9.90453 25.1973 9.93932C25.8192 9.97412 26.4155 10.1989 26.9056 10.5834L27.0475 10.702L27.1772 10.8246Z" fill="#FF9600" stroke="#051F7D" stroke-width="2" stroke-linecap="round" stroke-linejoin="round"/>
    </g>
    <defs>
        <clipPath id="clip0_0_1">
            <rect width="24.32" height="24.32" fill="white" transform="translate(6.83838 6.84277)"/>
        </clipPath>
    </defs>
</svg>
