<svg fill="none" xmlns="http://www.w3.org/2000/svg" viewBox="14 12 213 30">     <g filter="url(#filter0_d_176_458)">         <rect x="14" y="12" width="213" height="30" rx="3" fill="white"/>     </g>     <g filter="url(#filter1_d_176_458)">         <rect x="14" y="12" width="30" height="30" rx="3" fill="url(#paint0_linear_176_458)"/>     </g>     <path d="M23.1 22.0526L21 22.0526M34.6 27.5L36 27.4633M34.6 27.5C34.6 26.3954 33.7046 25.5 32.6 25.5C31.4954 25.5 30.6 26.3954 30.6 27.5C30.6 28.6046 31.4954 29.5 32.6 29.5C33.7046 29.5 34.6 28.6046 34.6 27.5ZM30.0259 27.4632L21 27.4632M27.8325 32.874L36 32.874M21 32.874L23.1 32.874M36 22.0526L27.8325 22.0526M23.6 22C23.6 20.8954 24.4954 20 25.6 20C26.7046 20 27.6 20.8954 27.6 22C27.6 23.1046 26.7046 24 25.6 24C24.4954 24 23.6 23.1046 23.6 22ZM23.6 33C23.6 31.8954 24.4954 31 25.6 31C26.7046 31 27.6 31.8954 27.6 33C27.6 34.1046 26.7046 35 25.6 35C24.4954 35 23.6 34.1046 23.6 33Z" stroke="white" stroke-width="1.5" stroke-linecap="round"/>     <path d="M76.36 30C75.8533 30 75.4467 29.89 75.14 29.67C74.84 29.45 74.6767 29.1667 74.65 28.82C74.6233 28.6933 74.61 28.4767 74.61 28.17H75.47C75.47 28.3633 75.48 28.52 75.5 28.64C75.5267 28.76 75.5933 28.8433 75.7 28.89C75.8067 28.9367 75.9733 28.96 76.2 28.96H76.95C77.5433 28.96 77.84 28.7833 77.84 28.43C77.84 28.3633 77.83 28.2967 77.81 28.23L77.8 28.18L77.05 25.25L77.96 25L78.7 27.95C78.7933 28.3233 78.8867 28.5867 78.98 28.74C79.0733 28.8867 79.2267 28.96 79.44 28.96H79.93L79.99 29.48L79.93 30H79.44C79 30 78.64 29.8267 78.36 29.48C78.0267 29.8267 77.5167 30 76.83 30H76.36ZM80.0789 28.96H81.6889C81.9956 28.96 82.2122 28.9067 82.3389 28.8C82.4656 28.6933 82.5189 28.5267 82.4989 28.3L82.3889 27.07L83.3189 26.98L83.4289 28.21V28.22C83.4556 28.5 83.5256 28.6933 83.6389 28.8C83.7589 28.9067 83.9622 28.96 84.2489 28.96L84.2989 29.48L84.2489 30C83.6956 30 83.2756 29.8467 82.9889 29.54C82.6622 29.8467 82.2289 30 81.6889 30H80.0789V28.96ZM79.5889 30.97H80.5689V31.96H79.5889V30.97ZM81.4589 30.97H82.4389V31.96H81.4589V30.97ZM84.4012 28.96H85.0312C85.3378 28.96 85.5545 28.91 85.6812 28.81C85.8078 28.7033 85.8645 28.54 85.8512 28.32V28.3L85.7412 27.07L86.6612 26.98L86.7712 28.21V28.22C86.7978 28.5 86.8678 28.6933 86.9812 28.8C87.0945 28.9067 87.2978 28.96 87.5912 28.96L87.6512 29.48L87.5912 30C87.0445 30 86.6245 29.85 86.3312 29.55C86.0178 29.85 85.5845 30 85.0312 30H84.4012V28.96ZM85.2012 24.85H86.3112V25.96H85.2012V24.85ZM87.7371 28.96H89.8471C90.0004 28.96 90.1204 28.9267 90.2071 28.86C90.3538 28.7533 90.4271 28.61 90.4271 28.43C90.4271 28.3167 90.3938 28.2067 90.3271 28.1L88.1071 24.96L88.3171 24.18L91.9271 22.85L92.2571 23.82L89.2671 24.91L91.0271 27.48C91.2604 27.8467 91.3771 28.2067 91.3771 28.56C91.3771 28.9333 91.2504 29.2533 90.9971 29.52C90.7304 29.84 90.3438 30 89.8371 30H87.7371V28.96ZM96.4451 31.56C97.2984 31.38 97.8884 31.2367 98.2151 31.13C98.5484 31.03 98.7784 30.8967 98.9051 30.73C99.0384 30.57 99.0917 30.3267 99.0651 30H97.8351C97.2951 30 96.8651 29.8333 96.5451 29.5C96.2251 29.16 96.0651 28.7067 96.0651 28.14C96.0651 27.7867 96.1417 27.4533 96.2951 27.14C96.4484 26.82 96.6651 26.5667 96.9451 26.38C97.2251 26.1867 97.5417 26.09 97.8951 26.09C98.4084 26.09 98.8384 26.29 99.1851 26.69C99.5317 27.0833 99.7417 27.5967 99.8151 28.23L99.8951 28.96H100.495L100.555 29.48L100.495 30H100.465H100.005L100.015 30.22C100.015 30.7067 99.8984 31.09 99.6651 31.37C99.4384 31.65 99.0951 31.8733 98.6351 32.04C98.1751 32.2133 97.5084 32.39 96.6351 32.57L96.4451 31.56ZM96.9951 28.14C96.9951 28.4133 97.0617 28.62 97.1951 28.76C97.3284 28.8933 97.5417 28.96 97.8351 28.96H98.9551L98.8851 28.35C98.8451 27.9567 98.7384 27.6567 98.5651 27.45C98.3917 27.2367 98.1684 27.13 97.8951 27.13C97.6151 27.13 97.3951 27.23 97.2351 27.43C97.0751 27.63 96.9951 27.8667 96.9951 28.14ZM100.645 28.96H100.805C101.659 28.96 102.559 28.8267 103.505 28.56L105.745 27.92L103.805 26.95C103.625 26.85 103.439 26.8 103.245 26.8C103.052 26.8 102.869 26.8533 102.695 26.96C102.522 27.0667 102.382 27.2133 102.275 27.4L102.095 27.72L101.295 27.22L101.485 26.87C101.685 26.51 101.935 26.2367 102.235 26.05C102.535 25.8633 102.862 25.77 103.215 25.77C103.555 25.77 103.902 25.8633 104.255 26.05L106.825 27.45L106.685 28.63L106.405 28.72C106.552 28.88 106.742 28.96 106.975 28.96H107.615L107.675 29.48L107.615 30H106.975C106.649 30 106.349 29.91 106.075 29.73C105.809 29.5433 105.605 29.3033 105.465 29.01L103.765 29.55C102.799 29.85 101.809 30 100.795 30H100.645V28.96ZM103.235 30.82H104.345V31.92H103.235V30.82ZM107.761 28.96H109.371C109.677 28.96 109.894 28.9067 110.021 28.8C110.147 28.6933 110.201 28.5267 110.181 28.3L110.071 27.07L111.001 26.98L111.111 28.21V28.22C111.137 28.5 111.207 28.6933 111.321 28.8C111.441 28.9067 111.644 28.96 111.931 28.96L111.981 29.48L111.931 30C111.377 30 110.957 29.8467 110.671 29.54C110.344 29.8467 109.911 30 109.371 30H107.761V28.96ZM107.951 24.92H108.931V25.91H107.951V24.92ZM109.811 24.92H110.791V25.91H109.811V24.92ZM117.313 30C116.806 30 116.396 29.8067 116.083 29.42C115.776 29.8067 115.346 30 114.793 30C114.293 30 113.896 29.8067 113.603 29.42C113.283 29.8067 112.859 30 112.333 30H112.083V28.96H112.333C112.653 28.96 112.869 28.8933 112.983 28.76C113.096 28.6267 113.153 28.4567 113.153 28.25V27.02H114.023V28.25C114.023 28.3967 114.073 28.5533 114.173 28.72C114.273 28.88 114.479 28.96 114.793 28.96C115.113 28.96 115.326 28.8967 115.433 28.77C115.546 28.6367 115.603 28.4633 115.603 28.25V27.02H116.473V28.26C116.473 28.3933 116.523 28.5433 116.623 28.71C116.729 28.87 116.939 28.95 117.253 28.95C117.546 28.95 117.759 28.9 117.893 28.8C118.033 28.7 118.103 28.57 118.103 28.41C118.103 28.35 118.093 28.29 118.073 28.23L117.743 27L118.583 26.75L118.913 27.98L118.933 28.05C119.006 28.3233 119.149 28.5433 119.363 28.71C119.576 28.8767 119.823 28.96 120.103 28.96L120.163 29.48L120.103 30C119.816 30 119.553 29.9467 119.313 29.84C119.073 29.7267 118.863 29.57 118.683 29.37C118.536 29.5633 118.346 29.7167 118.113 29.83C117.879 29.9433 117.613 30 117.313 30ZM120.253 28.96H120.423C121.043 28.96 121.549 28.9467 121.943 28.92C122.343 28.8933 122.749 28.8233 123.163 28.71L125.363 28.14L123.473 27.08C123.293 26.98 123.103 26.93 122.903 26.93C122.703 26.93 122.513 26.9833 122.333 27.09C122.159 27.19 122.023 27.3367 121.923 27.53L121.743 27.84L120.943 27.34L121.133 26.99C121.326 26.6367 121.576 26.3633 121.883 26.17C122.189 25.9767 122.519 25.88 122.873 25.88C123.226 25.88 123.573 25.98 123.913 26.18L126.453 27.7L126.323 28.9L123.393 29.71C122.926 29.8367 122.466 29.9167 122.013 29.95C121.566 29.9833 121.033 30 120.413 30H120.253V28.96ZM122.843 30.82H123.953V31.92H122.843V30.82ZM130.694 23.32L131.624 23.27L131.874 29.99L130.954 30.03L130.694 23.32ZM132.322 31.56L132.812 31.43C133.179 31.33 133.462 31.2367 133.662 31.15C133.869 31.0633 134.032 30.9433 134.152 30.79C134.279 30.6433 134.342 30.4467 134.342 30.2C134.342 30.1533 134.336 30.07 134.322 29.95L133.922 27.07L134.842 26.93L135.132 29.05L135.162 29.26L135.232 29.83C135.252 29.99 135.262 30.1367 135.262 30.27C135.262 30.87 135.076 31.33 134.702 31.65C134.336 31.97 133.786 32.23 133.052 32.43L132.562 32.56L132.322 31.56ZM142.051 30C141.884 30 141.748 29.9867 141.641 29.96C141.654 30.1067 141.661 30.21 141.661 30.27C141.661 30.87 141.474 31.33 141.101 31.65C140.728 31.97 140.174 32.23 139.441 32.43L138.951 32.56L138.711 31.56L139.201 31.43C139.568 31.33 139.851 31.2367 140.051 31.15C140.258 31.0633 140.421 30.9433 140.541 30.79C140.668 30.6433 140.731 30.4467 140.731 30.2C140.731 30.1533 140.724 30.07 140.711 29.95L140.311 27.07L141.231 26.93L141.311 27.54C141.378 27.9 141.414 28.1167 141.421 28.19C141.474 28.5033 141.541 28.71 141.621 28.81C141.708 28.91 141.851 28.96 142.051 28.96H142.121L142.181 29.48L142.121 30H142.051ZM148.79 30C148.35 30 147.93 29.8533 147.53 29.56C147.17 29.8533 146.77 30 146.33 30H142.3V28.96H143.24L143.55 28.55L143.34 23.32L144.27 23.27L144.44 27.4L144.54 27.26C144.84 26.8733 145.126 26.5833 145.4 26.39C145.673 26.19 145.983 26.09 146.33 26.09C146.683 26.09 147.003 26.18 147.29 26.36C147.583 26.54 147.813 26.7867 147.98 27.1C148.146 27.4067 148.23 27.7467 148.23 28.12C148.23 28.34 148.19 28.5567 148.11 28.77C148.316 28.8967 148.543 28.96 148.79 28.96H148.93L148.99 29.48L148.93 30H148.79ZM146.36 28.96C146.62 28.96 146.84 28.8733 147.02 28.7C147.206 28.5267 147.3 28.32 147.3 28.08C147.3 27.8133 147.21 27.59 147.03 27.41C146.856 27.2233 146.633 27.13 146.36 27.13C146.133 27.13 145.926 27.21 145.74 27.37C145.553 27.5233 145.306 27.7933 145 28.18L144.33 28.96H146.36ZM145.73 23.77H146.84V24.88H145.73V23.77ZM149.083 28.96H149.873C150.193 28.96 150.439 28.9067 150.613 28.8C150.793 28.6933 150.883 28.51 150.883 28.25C150.883 28.1167 150.859 27.97 150.813 27.81L150.413 26.32L151.313 26.06L151.713 27.55C151.779 27.79 151.813 28.0233 151.813 28.25C151.813 28.7967 151.629 29.2267 151.263 29.54C150.896 29.8467 150.433 30 149.873 30H149.083V28.96ZM149.883 24.09H150.993V25.2H149.883V24.09ZM157.628 30C157.121 30 156.714 29.89 156.408 29.67C156.108 29.45 155.944 29.1667 155.918 28.82C155.891 28.6933 155.878 28.4767 155.878 28.17H156.738C156.738 28.3633 156.748 28.52 156.768 28.64C156.794 28.76 156.861 28.8433 156.968 28.89C157.074 28.9367 157.241 28.96 157.468 28.96H158.298C158.891 28.96 159.188 28.78 159.188 28.42C159.188 28.38 159.174 28.3 159.148 28.18C159.034 27.84 158.831 27.42 158.538 26.92C158.251 26.42 157.934 25.9233 157.588 25.43L158.338 24.82C158.731 25.3667 159.088 25.9233 159.408 26.49C159.734 27.0567 159.948 27.5433 160.048 27.95C160.088 28.1167 160.108 28.2833 160.108 28.45C160.108 28.91 159.944 29.2833 159.618 29.57C159.291 29.8567 158.811 30 158.178 30H157.628ZM160.107 31.56L160.597 31.43C160.964 31.33 161.247 31.2367 161.447 31.15C161.654 31.0633 161.817 30.9433 161.937 30.79C162.064 30.6433 162.127 30.4467 162.127 30.2C162.127 30.1533 162.121 30.07 162.107 29.95L161.707 27.07L162.627 26.93L162.917 29.05L162.947 29.26L163.017 29.83C163.037 29.99 163.047 30.1367 163.047 30.27C163.047 30.87 162.861 31.33 162.487 31.65C162.121 31.97 161.571 32.23 160.837 32.43L160.347 32.56L160.107 31.56ZM164.785 31.56C165.638 31.38 166.228 31.2367 166.555 31.13C166.888 31.03 167.118 30.8967 167.245 30.73C167.378 30.57 167.432 30.3267 167.405 30H166.175C165.635 30 165.205 29.8333 164.885 29.5C164.565 29.16 164.405 28.7067 164.405 28.14C164.405 27.7867 164.482 27.4533 164.635 27.14C164.788 26.82 165.005 26.5667 165.285 26.38C165.565 26.1867 165.882 26.09 166.235 26.09C166.748 26.09 167.178 26.29 167.525 26.69C167.872 27.0833 168.082 27.5967 168.155 28.23L168.235 28.96H168.835L168.895 29.48L168.835 30H168.805H168.345L168.355 30.22C168.355 30.7067 168.238 31.09 168.005 31.37C167.778 31.65 167.435 31.8733 166.975 32.04C166.515 32.2133 165.848 32.39 164.975 32.57L164.785 31.56ZM165.335 28.14C165.335 28.4133 165.402 28.62 165.535 28.76C165.668 28.8933 165.882 28.96 166.175 28.96H167.295L167.225 28.35C167.185 27.9567 167.078 27.6567 166.905 27.45C166.732 27.2367 166.508 27.13 166.235 27.13C165.955 27.13 165.735 27.23 165.575 27.43C165.415 27.63 165.335 27.8667 165.335 28.14ZM168.985 28.96H169.095C169.295 28.96 169.475 28.9167 169.635 28.83C169.795 28.7367 169.915 28.61 169.995 28.45L170.755 27C170.888 26.74 171.078 26.54 171.325 26.4C171.572 26.2533 171.835 26.18 172.115 26.18C172.375 26.18 172.618 26.24 172.845 26.36C173.138 26.5133 173.355 26.72 173.495 26.98C173.642 27.24 173.715 27.54 173.715 27.88C173.715 28.34 173.595 28.8267 173.355 29.34C173.255 29.56 173.108 29.7333 172.915 29.86C172.728 29.9867 172.522 30.05 172.295 30.05C172.108 30.05 171.932 30.0067 171.765 29.92L170.545 29.29C170.165 29.7633 169.682 30 169.095 30H168.985V28.96ZM172.315 29.04C172.362 29.0667 172.408 29.08 172.455 29.08C172.548 29.08 172.612 29.0333 172.645 28.94L172.745 28.72C172.852 28.4667 172.905 28.2367 172.905 28.03C172.905 27.85 172.868 27.69 172.795 27.55C172.722 27.4033 172.615 27.2967 172.475 27.23C172.375 27.1767 172.262 27.15 172.135 27.15C171.995 27.15 171.862 27.19 171.735 27.27C171.615 27.3433 171.518 27.4533 171.445 27.6L171.045 28.4L172.315 29.04ZM177.123 31.56L177.613 31.43C177.98 31.33 178.263 31.2367 178.463 31.15C178.67 31.0633 178.833 30.9433 178.953 30.79C179.08 30.6433 179.143 30.4467 179.143 30.2C179.143 30.1533 179.136 30.07 179.123 29.95L178.723 27.07L179.643 26.93L179.933 29.05L179.963 29.26L180.033 29.83C180.053 29.99 180.063 30.1367 180.063 30.27C180.063 30.87 179.876 31.33 179.503 31.65C179.136 31.97 178.586 32.23 177.853 32.43L177.363 32.56L177.123 31.56ZM183.345 30C182.898 30 182.545 29.9333 182.285 29.8C182.025 29.6667 181.835 29.4533 181.715 29.16C181.595 28.86 181.525 28.4467 181.505 27.92L181.325 23.32L182.255 23.28L182.435 27.92C182.448 28.24 182.475 28.47 182.515 28.61C182.561 28.7433 182.641 28.8367 182.755 28.89C182.875 28.9367 183.071 28.96 183.345 28.96H183.445L183.505 29.48L183.445 30H183.345ZM183.598 28.96H184.388C184.708 28.96 184.955 28.9067 185.128 28.8C185.308 28.6933 185.398 28.51 185.398 28.25C185.398 28.1167 185.375 27.97 185.328 27.81L184.928 26.32L185.828 26.06L186.228 27.55C186.295 27.79 186.328 28.0233 186.328 28.25C186.328 28.7967 186.145 29.2267 185.778 29.54C185.412 29.8467 184.948 30 184.388 30H183.598V28.96ZM183.788 30.88H184.888V31.99H183.788V30.88Z" fill="#CCCCCC"/>     <path d="M198.567 28.3192L199.297 28.1479L198.567 28.3192ZM198.567 24.277L199.297 24.4482L198.567 24.277ZM210.029 24.277L210.759 24.1057L210.029 24.277ZM210.029 28.3192L210.759 28.4905L210.029 28.3192ZM206.319 32.029L206.148 31.2989L206.319 32.029ZM202.277 32.029L202.106 32.7592L202.277 32.029ZM202.277 20.5671L202.106 19.8369L202.277 20.5671ZM206.319 20.5671L206.49 19.8369L206.319 20.5671ZM211.136 34.1969C211.429 34.4898 211.904 34.4898 212.197 34.1969C212.49 33.904 212.49 33.4291 212.197 33.1363L211.136 34.1969ZM199.297 28.1479C199.012 26.9312 199.012 25.665 199.297 24.4482L197.837 24.1057C197.499 25.5477 197.499 27.0485 197.837 28.4905L199.297 28.1479ZM209.299 24.4482C209.584 25.665 209.584 26.9312 209.299 28.1479L210.759 28.4905C211.097 27.0485 211.097 25.5477 210.759 24.1057L209.299 24.4482ZM206.148 31.2989C204.931 31.5843 203.665 31.5843 202.448 31.2989L202.106 32.7592C203.548 33.0975 205.048 33.0975 206.49 32.7592L206.148 31.2989ZM202.448 21.2973C203.665 21.0119 204.931 21.0119 206.148 21.2973L206.49 19.8369C205.048 19.4987 203.548 19.4987 202.106 19.8369L202.448 21.2973ZM202.448 31.2989C200.885 30.9321 199.664 29.7114 199.297 28.1479L197.837 28.4905C198.334 30.6086 199.988 32.2624 202.106 32.7592L202.448 31.2989ZM206.49 32.7592C208.609 32.2624 210.262 30.6086 210.759 28.4905L209.299 28.1479C208.932 29.7114 207.711 30.9321 206.148 31.2989L206.49 32.7592ZM206.148 21.2973C207.711 21.664 208.932 22.8848 209.299 24.4482L210.759 24.1057C210.262 21.9876 208.609 20.3338 206.49 19.8369L206.148 21.2973ZM202.106 19.8369C199.988 20.3338 198.334 21.9876 197.837 24.1057L199.297 24.4482C199.664 22.8848 200.885 21.664 202.448 21.2973L202.106 19.8369ZM208.422 31.4822L211.136 34.1969L212.197 33.1363L209.482 30.4215L208.422 31.4822Z" fill="#8A8A8A"/>     <defs>         <filter id="filter0_d_176_458" x="0.9" y="0.9" width="239.2" height="56.2" filterUnits="userSpaceOnUse" color-interpolation-filters="sRGB">             <feFlood flood-opacity="0" result="BackgroundImageFix"/>             <feColorMatrix in="SourceAlpha" type="matrix" values="0 0 0 0 0 0 0 0 0 0 0 0 0 0 0 0 0 0 127 0" result="hardAlpha"/>             <feOffset dy="2"/>             <feGaussianBlur stdDeviation="6.55"/>             <feComposite in2="hardAlpha" operator="out"/>             <feColorMatrix type="matrix" values="0 0 0 0 0 0 0 0 0 0 0 0 0 0 0 0 0 0 0.09 0"/>             <feBlend mode="normal" in2="BackgroundImageFix" result="effect1_dropShadow_176_458"/>             <feBlend mode="normal" in="SourceGraphic" in2="effect1_dropShadow_176_458" result="shape"/>         </filter>         <filter id="filter1_d_176_458" x="0.9" y="0.9" width="56.2" height="56.2" filterUnits="userSpaceOnUse" color-interpolation-filters="sRGB">             <feFlood flood-opacity="0" result="BackgroundImageFix"/>             <feColorMatrix in="SourceAlpha" type="matrix" values="0 0 0 0 0 0 0 0 0 0 0 0 0 0 0 0 0 0 127 0" result="hardAlpha"/>             <feOffset dy="2"/>             <feGaussianBlur stdDeviation="6.55"/>             <feComposite in2="hardAlpha" operator="out"/>             <feColorMatrix type="matrix" values="0 0 0 0 0 0 0 0 0 0 0 0 0 0 0 0 0 0 0.09 0"/>             <feBlend mode="normal" in2="BackgroundImageFix" result="effect1_dropShadow_176_458"/>             <feBlend mode="normal" in="SourceGraphic" in2="effect1_dropShadow_176_458" result="shape"/>         </filter>         <linearGradient id="paint0_linear_176_458" x1="29" y1="12" x2="29" y2="42" gradientUnits="userSpaceOnUse">             <stop stop-color="#FFC300"/>             <stop offset="1" stop-color="#F9AD33"/>         </linearGradient>     </defs> </svg>