<svg width="16" height="16" viewBox="0 0 16 16" fill="none" xmlns="http://www.w3.org/2000/svg">
    <path d="M1.56737 9.31922L2.29755 9.14794L1.56737 9.31922ZM1.56737 5.27695L2.29755 5.44823L1.56737 5.27695ZM13.0293 5.27696L13.7595 5.10568L13.0293 5.27696ZM13.0293 9.31921L13.7595 9.49049L13.0293 9.31921ZM9.31946 13.029L9.14818 12.2989L9.31946 13.029ZM5.2772 13.029L5.10592 13.7592L5.2772 13.029ZM5.2772 1.56712L5.10592 0.836943L5.2772 1.56712ZM9.31946 1.56712L9.49074 0.836943L9.31946 1.56712ZM14.1365 15.1969C14.4294 15.4898 14.9043 15.4898 15.1972 15.1969C15.4901 14.904 15.4901 14.4291 15.1972 14.1363L14.1365 15.1969ZM2.29755 9.14794C2.01214 7.93122 2.01214 6.66495 2.29755 5.44823L0.837188 5.10568C0.498932 6.54771 0.498932 8.04846 0.837188 9.49049L2.29755 9.14794ZM12.2991 5.44823C12.5845 6.66496 12.5845 7.93122 12.2991 9.14794L13.7595 9.49049C14.0977 8.04846 14.0977 6.54771 13.7595 5.10568L12.2991 5.44823ZM9.14818 12.2989C7.93146 12.5843 6.6652 12.5843 5.44848 12.2989L5.10592 13.7592C6.54796 14.0975 8.0487 14.0975 9.49073 13.7592L9.14818 12.2989ZM5.44848 2.29731C6.6652 2.0119 7.93146 2.0119 9.14818 2.2973L9.49074 0.836943C8.0487 0.498688 6.54796 0.498688 5.10592 0.836943L5.44848 2.29731ZM5.44848 12.2989C3.88503 11.9321 2.66428 10.7114 2.29755 9.14794L0.837188 9.49049C1.33402 11.6086 2.98784 13.2624 5.10592 13.7592L5.44848 12.2989ZM9.49073 13.7592C11.6088 13.2624 13.2626 11.6086 13.7595 9.49049L12.2991 9.14794C11.9324 10.7114 10.7116 11.9321 9.14818 12.2989L9.49073 13.7592ZM9.14818 2.2973C10.7116 2.66404 11.9324 3.88479 12.2991 5.44823L13.7595 5.10568C13.2626 2.9876 11.6088 1.33378 9.49074 0.836943L9.14818 2.2973ZM5.10592 0.836943C2.98784 1.33378 1.33402 2.98759 0.837188 5.10568L2.29755 5.44823C2.66428 3.88479 3.88503 2.66404 5.44848 2.29731L5.10592 0.836943ZM11.4218 12.4822L14.1365 15.1969L15.1972 14.1363L12.4824 11.4215L11.4218 12.4822Z" fill="#8A8A8A"/>
</svg>
