<svg width="20" height="20" viewBox="0 0 20 20" fill="none" xmlns="http://www.w3.org/2000/svg">
    <path d="M3.617 3.72775L1.16699 3.72775M17.0337 10.083L18.667 10.0402M17.0337 10.083C17.0337 8.79434 15.989 7.74967 14.7003 7.74967C13.4117 7.74967 12.367 8.79434 12.367 10.083C12.367 11.3717 13.4117 12.4163 14.7003 12.4163C15.989 12.4163 17.0337 11.3717 17.0337 10.083ZM11.6972 10.0401L1.16699 10.0401M9.13828 16.3526L18.667 16.3526M1.16699 16.3526L3.61699 16.3526M18.667 3.72775L9.13829 3.72775M4.20033 3.66634C4.20033 2.37768 5.245 1.33301 6.53366 1.33301C7.82233 1.33301 8.867 2.37768 8.867 3.66634C8.867 4.95501 7.82233 5.99967 6.53366 5.99967C5.245 5.99967 4.20033 4.955 4.20033 3.66634ZM4.20033 16.4997C4.20033 15.211 5.245 14.1663 6.53366 14.1663C7.82233 14.1663 8.86699 15.211 8.86699 16.4997C8.86699 17.7883 7.82233 18.833 6.53366 18.833C5.245 18.833 4.20033 17.7883 4.20033 16.4997Z" stroke="white" stroke-width="1.5" stroke-linecap="round"/>
</svg>
