<svg width="20" height="20" viewBox="0 0 20 20" fill="none" xmlns="http://www.w3.org/2000/svg">
    <g clip-path="url(#clip0_188_277)">
        <path d="M3.12085 10.0001C3.12085 10.6083 3.36244 11.1916 3.79248 11.6216C4.22252 12.0516 4.80578 12.2932 5.41395 12.2932C6.02212 12.2932 6.60538 12.0516 7.03542 11.6216C7.46546 11.1916 7.70706 10.6083 7.70706 10.0001C7.70706 9.39197 7.46546 8.80871 7.03542 8.37867C6.60538 7.94863 6.02212 7.70703 5.41395 7.70703C4.80578 7.70703 4.22252 7.94863 3.79248 8.37867C3.36244 8.80871 3.12085 9.39197 3.12085 10.0001Z" stroke="#051F7D" stroke-width="2" stroke-linecap="round" stroke-linejoin="round"/>
        <path d="M12.2932 5.41395C12.2932 6.02212 12.5348 6.60538 12.9648 7.03542C13.3949 7.46546 13.9781 7.70706 14.5863 7.70706C15.1945 7.70706 15.7777 7.46546 16.2078 7.03542C16.6378 6.60538 16.8794 6.02212 16.8794 5.41395C16.8794 4.80578 16.6378 4.22252 16.2078 3.79248C15.7777 3.36244 15.1945 3.12085 14.5863 3.12085C13.9781 3.12085 13.3949 3.36244 12.9648 3.79248C12.5348 4.22252 12.2932 4.80578 12.2932 5.41395Z" stroke="#051F7D" stroke-width="2" stroke-linecap="round" stroke-linejoin="round"/>
        <path d="M12.2932 14.5863C12.2932 15.1945 12.5348 15.7777 12.9648 16.2078C13.3949 16.6378 13.9781 16.8794 14.5863 16.8794C15.1945 16.8794 15.7777 16.6378 16.2078 16.2078C16.6378 15.7777 16.8794 15.1945 16.8794 14.5863C16.8794 13.9781 16.6378 13.3949 16.2078 12.9648C15.7777 12.5348 15.1945 12.2932 14.5863 12.2932C13.9781 12.2932 13.3949 12.5348 12.9648 12.9648C12.5348 13.3949 12.2932 13.9781 12.2932 14.5863Z" stroke="#051F7D" stroke-width="2" stroke-linecap="round" stroke-linejoin="round"/>
        <path d="M7.47754 9.00632L12.5224 6.40747" stroke="#051F7D" stroke-width="2" stroke-linecap="round" stroke-linejoin="round"/>
        <path d="M7.47754 10.9937L12.5224 13.5925" stroke="#051F7D" stroke-width="2" stroke-linecap="round" stroke-linejoin="round"/>
    </g>
    <defs>
        <clipPath id="clip0_188_277">
            <rect width="18.3448" height="18.3448" fill="white" transform="translate(0.827637 0.827637)"/>
        </clipPath>
    </defs>
</svg>
