<svg width="21" height="16" viewBox="0 0 21 16" fill="none" xmlns="http://www.w3.org/2000/svg">
    <path d="M6.86607 3.00638H6.12819C5.29866 3.00638 4.47502 3.15311 3.69169 3.44046C2.32455 3.94197 1.32964 5.1935 1.10172 6.69849L1.0942 6.74809C0.968598 7.57746 0.968599 8.42254 1.0942 9.25191L1.10172 9.30151C1.32964 10.8065 2.32455 12.058 3.69169 12.5595C4.47502 12.8469 5.29866 12.9936 6.12819 12.9936H6.86607C7.31092 12.9936 7.73726 13.1811 8.04993 13.5142L8.59139 14.091C10.1879 15.7918 12.938 14.9873 13.4719 12.6633C14.176 9.59862 14.176 6.40138 13.4719 3.33668C12.938 1.01271 10.1879 0.208226 8.59138 1.90899L8.04993 2.48581C7.73726 2.81891 7.31092 3.00638 6.86607 3.00638Z" stroke="#051F7D" stroke-width="1.5"/>
    <path d="M17 3C18.7934 3.99804 20 5.86346 20 8C20 10.1365 18.7934 12.002 17 13" stroke="#051F7D" stroke-width="1.5" stroke-linecap="round" stroke-linejoin="round"/>
    <path d="M16.5 6C17.0978 6.39922 17.5 7.14539 17.5 8C17.5 8.85461 17.0978 9.60078 16.5 10" stroke="#051F7D" stroke-width="1.5" stroke-linecap="round" stroke-linejoin="round"/>
</svg>
