<svg width="20" height="20" viewBox="0 0 20 20" fill="none" xmlns="http://www.w3.org/2000/svg">
    <path d="M1 10C1 11.1819 1.23279 12.3522 1.68508 13.4442C2.13738 14.5361 2.80031 15.5282 3.63604 16.364C4.47177 17.1997 5.46392 17.8626 6.55585 18.3149C7.64778 18.7672 8.8181 19 10 19C11.1819 19 12.3522 18.7672 13.4442 18.3149C14.5361 17.8626 15.5282 17.1997 16.364 16.364C17.1997 15.5282 17.8626 14.5361 18.3149 13.4442C18.7672 12.3522 19 11.1819 19 10C19 8.8181 18.7672 7.64778 18.3149 6.55585C17.8626 5.46392 17.1997 4.47177 16.364 3.63604C15.5282 2.80031 14.5361 2.13738 13.4442 1.68508C12.3522 1.23279 11.1819 1 10 1C8.8181 1 7.64778 1.23279 6.55585 1.68508C5.46392 2.13738 4.47177 2.80031 3.63604 3.63604C2.80031 4.47177 2.13738 5.46392 1.68508 6.55585C1.23279 7.64778 1 8.8181 1 10Z" fill="#051F7D" stroke="#F9AD33" stroke-width="2" stroke-linecap="round" stroke-linejoin="round"/>
    <path d="M8 10C8 10.5304 8.21071 11.0391 8.58579 11.4142C8.96086 11.7893 9.46957 12 10 12C10.5304 12 11.0391 11.7893 11.4142 11.4142C11.7893 11.0391 12 10.5304 12 10C12 9.46957 11.7893 8.96086 11.4142 8.58579C11.0391 8.21071 10.5304 8 10 8C9.46957 8 8.96086 8.21071 8.58579 8.58579C8.21071 8.96086 8 9.46957 8 10Z" fill="#051F7D" stroke="#FFC300" stroke-width="2" stroke-linecap="round" stroke-linejoin="round"/>
    <path d="M10 12V19V12Z" fill="#051F7D"/>
    <path d="M10 12V19" stroke="#FFC300" stroke-width="2" stroke-linecap="round" stroke-linejoin="round"/>
    <path d="M8 10L1.25 8L8 10Z" fill="#051F7D"/>
    <path d="M8 10L1.25 8" stroke="#FFC300" stroke-width="2" stroke-linecap="round" stroke-linejoin="round"/>
    <path d="M12 10L18.75 8L12 10Z" fill="#051F7D"/>
    <path d="M12 10L18.75 8" stroke="#FFC300" stroke-width="2" stroke-linecap="round" stroke-linejoin="round"/>
</svg>
