<svg width="25" height="29" viewBox="0 0 25 29" fill="none" xmlns="http://www.w3.org/2000/svg">
    <path opacity="0.4" d="M20.8333 23.9501H19.7778C18.6667 23.9501 17.6111 24.3807 16.8333 25.1585L14.4583 27.5057C13.375 28.5751 11.6111 28.5751 10.5278 27.5057L8.15278 25.1585C7.375 24.3807 6.30556 23.9501 5.20833 23.9501H4.16667C1.86111 23.9501 0 22.1029 0 19.8251V4.67232C0 2.39454 1.86111 0.547363 4.16667 0.547363H20.8333C23.1389 0.547363 25 2.39454 25 4.67232V19.8251C25 22.089 23.1389 23.9501 20.8333 23.9501Z" fill="#C4C4C4"/>
    <path d="M10.2504 17.9084H6.52827C5.91715 17.9084 5.34771 17.6168 4.9866 17.1168C4.63938 16.6446 4.55603 16.0614 4.7227 15.5058C5.20881 14.0197 6.40325 13.214 7.45881 12.4918C8.56992 11.7418 9.19492 11.2696 9.19492 10.4641C9.19492 9.74186 8.61158 9.15853 7.88936 9.15853C7.16714 9.15853 6.58382 9.74186 6.58382 10.4641C6.58382 11.0335 6.1116 11.5057 5.54215 11.5057C4.97271 11.5057 4.50049 11.0335 4.50049 10.4641C4.50049 8.60297 6.01436 7.0752 7.88936 7.0752C9.76433 7.0752 11.2782 8.58908 11.2782 10.4641C11.2782 12.4225 9.806 13.4223 8.6255 14.2279C7.88939 14.7279 7.19492 15.2001 6.8477 15.8251H10.2366C10.806 15.8251 11.2782 16.2973 11.2782 16.8668C11.2782 17.4362 10.8199 17.9084 10.2504 17.9084Z" fill="#292D32"/>
    <path d="M18.1122 17.9083C17.5428 17.9083 17.0706 17.4361 17.0706 16.8666V15.9083H14.3485C14.3485 15.9083 14.3485 15.9083 14.3346 15.9083C13.654 15.9083 13.029 15.5473 12.6818 14.964C12.3346 14.3668 12.3346 13.6305 12.6818 13.0472C13.6262 11.4223 14.7235 9.57498 15.7235 7.96387C16.1679 7.25554 17.0151 6.93616 17.8068 7.15839C18.5985 7.3945 19.154 8.11668 19.1401 8.95001V13.839H19.4457C20.0151 13.839 20.4874 14.3112 20.4874 14.8807C20.4874 15.4501 20.0151 15.9223 19.4457 15.9223H19.1539V16.8807C19.1539 17.4501 18.6956 17.9083 18.1122 17.9083ZM17.0706 9.75559C16.2511 11.0889 15.4039 12.5194 14.64 13.825H17.0706V9.75559Z" fill="#292D32"/>
</svg>