<svg width="16" height="15" viewBox="0 0 16 15" fill="none" xmlns="http://www.w3.org/2000/svg">
    <path d="M12.1911 0H4.57248C2.2869 0 0.763184 1.24421 0.763184 4.14737V7.1003C0.763184 7.4072 1.05269 7.59798 1.3041 7.47356C2.05072 7.1003 2.91163 6.95928 3.81824 7.13347C5.82193 7.52333 7.29231 9.54724 7.23898 11.7619C7.23136 12.1103 7.18565 12.4504 7.10185 12.7822C7.0409 13.0393 7.23136 13.2799 7.47516 13.2799H12.1911C14.4766 13.2799 16.0004 12.0357 16.0004 9.13251V4.14737C16.0004 1.24421 14.4766 0 12.1911 0ZM8.38177 8.70947C7.33041 8.70947 6.47712 7.78046 6.47712 6.63579C6.47712 5.49112 7.33041 4.56211 8.38177 4.56211C9.43314 4.56211 10.2864 5.49112 10.2864 6.63579C10.2864 7.78046 9.43314 8.70947 8.38177 8.70947ZM13.9052 8.29474C13.9052 8.63482 13.6462 8.91684 13.3339 8.91684C13.0215 8.91684 12.7625 8.63482 12.7625 8.29474V4.97684C12.7625 4.63676 13.0215 4.35474 13.3339 4.35474C13.6462 4.35474 13.9052 4.63676 13.9052 4.97684V8.29474Z" fill="#0B784A"/>
    <path d="M3.04743 8.29443C1.36373 8.29443 0 9.77919 0 11.6123C0 12.2344 0.15999 12.8234 0.441878 13.321C0.96756 14.2832 1.93512 14.9302 3.04743 14.9302C4.15975 14.9302 5.12731 14.2832 5.65299 13.321C5.93488 12.8234 6.09487 12.2344 6.09487 11.6123C6.09487 9.77919 4.73114 8.29443 3.04743 8.29443ZM4.5483 11.3386L2.92554 12.9727C2.81888 13.0805 2.67412 13.1386 2.53699 13.1386C2.39224 13.1386 2.24748 13.0805 2.1332 12.9561L1.37896 12.1349C1.15803 11.8943 1.15803 11.4962 1.37896 11.2557C1.5999 11.0151 1.9656 11.0151 2.18653 11.2557L2.55223 11.6538L3.7712 10.4262C3.99976 10.1939 4.36545 10.2105 4.57877 10.4594C4.79209 10.7082 4.77685 11.1064 4.5483 11.3386Z" fill="#0B784A"/>
</svg>
