<svg width="42" height="45" viewBox="0 0 42 45" fill="none" xmlns="http://www.w3.org/2000/svg">
    <path d="M26.011 3.26179H13.0088C12.109 3.26179 11.3892 2.54195 11.3892 1.64214C11.3892 0.742339 12.109 0 13.0088 0H26.011C26.9108 0 27.6306 0.719844 27.6306 1.61965C27.6306 2.51945 26.9108 3.26179 26.011 3.26179Z" fill="#0B784A"/>
    <path d="M37.4335 29.2451H30.8199C27.963 29.2451 26.2534 30.9547 26.2534 33.8116V40.4252C26.2534 43.2821 27.963 44.9917 30.8199 44.9917H37.4335C40.2904 44.9917 42 43.2821 42 40.4252V33.8116C42 30.9547 40.2904 29.2451 37.4335 29.2451ZM36.8036 39.2779L34.1492 40.8076C33.6093 41.1225 33.0694 41.28 32.5745 41.28C32.1921 41.28 31.8547 41.19 31.5398 41.0101C30.8199 40.5827 30.415 39.7503 30.415 38.6481V35.5887C30.415 34.4865 30.8199 33.6542 31.5398 33.2268C32.2596 32.7994 33.1819 32.8893 34.1492 33.4292L36.8036 34.9589C37.7484 35.5213 38.2883 36.2861 38.2883 37.1184C38.2883 37.9507 37.7709 38.7156 36.8036 39.2779Z" fill="#0B784A"/>
    <path d="M24.0024 40.419V33.8054C24.0024 29.7338 26.7468 26.9894 30.8184 26.9894H37.432C37.9493 26.9894 38.4442 27.0344 38.9166 27.1244C38.9616 26.5845 39.0066 26.0446 39.0066 25.4822C39.0066 14.7071 30.256 5.95654 19.5033 5.95654C8.75061 5.95654 0 14.7071 0 25.4822C0 36.2349 8.75061 44.9855 19.5033 44.9855C21.4154 44.9855 23.2375 44.6706 24.9921 44.1757C24.3623 43.1184 24.0024 41.8587 24.0024 40.419ZM21.1905 24.7399C21.1905 25.6622 20.4256 26.427 19.5033 26.427C18.581 26.427 17.8162 25.6622 17.8162 24.7399V13.4924C17.8162 12.5701 18.581 11.8053 19.5033 11.8053C20.4256 11.8053 21.1905 12.5701 21.1905 13.4924V24.7399Z" fill="#FFC300"/>
</svg>
