<svg width="30" height="30" viewBox="0 0 30 30" fill="none" xmlns="http://www.w3.org/2000/svg">
    <path d="M7.39245 2.89288V0.964292C7.39245 0.437146 6.95531 0 6.42816 0C5.90101 0 5.46387 0.437146 5.46387 0.964292V2.97002C5.7853 2.93145 6.08101 2.89288 6.42816 2.89288H7.39245Z" fill="#00296B"/>
    <path d="M17.6791 2.97002V0.964292C17.6791 0.437146 17.2419 0 16.7148 0C16.1876 0 15.7505 0.437146 15.7505 0.964292V2.89288H16.7148C17.0619 2.89288 17.3576 2.93145 17.6791 2.97002Z" fill="#00296B"/>
    <path d="M24.8016 17.6378C23.8116 16.8535 22.5645 16.3906 21.2145 16.3906C19.8645 16.3906 18.5916 16.8663 17.6016 17.6635C16.2644 18.7178 15.4287 20.3635 15.4287 22.1764C15.4287 23.2564 15.7373 24.2978 16.2644 25.1464C16.6759 25.815 17.203 26.4064 17.833 26.8564C18.7844 27.5507 19.9416 27.9621 21.2145 27.9621C22.6802 27.9621 24.0045 27.4221 25.0202 26.5221C25.4702 26.1493 25.8559 25.6864 26.1645 25.1593C26.6916 24.2978 27.0002 23.2564 27.0002 22.1764C27.0002 20.3378 26.1388 18.6921 24.8016 17.6378ZM21.2145 24.9278C21.2145 23.4107 19.9802 22.1764 18.463 22.1764C19.9802 22.1764 21.2145 20.9421 21.2145 19.4249C21.2145 20.9421 22.4488 22.1764 23.9659 22.1764C22.4488 22.1764 21.2145 23.4107 21.2145 24.9278Z" fill="#00296B"/>
    <path d="M17.6787 2.96582V4.81726C17.6787 5.3444 17.2415 5.78155 16.7144 5.78155C16.1873 5.78155 15.7501 5.3444 15.7501 4.81726V2.88867H7.39291V4.81726C7.39291 5.3444 6.95576 5.78155 6.42861 5.78155C5.90147 5.78155 5.46432 5.3444 5.46432 4.81726V2.96582C1.67144 3.31296 0 5.75583 0 9.31729V20.2459C0 24.1031 1.92858 26.6745 6.42861 26.6745H11.7386C12.7158 26.6745 13.3715 25.5817 13.1272 24.6302C12.9472 23.936 12.8572 23.216 12.8572 22.4959C12.8572 19.8216 14.0529 17.3531 16.123 15.7202C17.6273 14.4987 19.5558 13.8173 21.5359 13.8173H21.5873C22.3973 13.8173 23.143 13.2259 23.143 12.4159V9.31729C23.143 5.75583 21.4716 3.31296 17.6787 2.96582ZM9.00006 19.9245H6.42861C5.90147 19.9245 5.46432 19.4874 5.46432 18.9602C5.46432 18.4331 5.90147 17.9959 6.42861 17.9959H9.00006C9.52721 17.9959 9.96435 18.4331 9.96435 18.9602C9.96435 19.4874 9.52721 19.9245 9.00006 19.9245ZM12.8572 13.4959H6.42861C5.90147 13.4959 5.46432 13.0587 5.46432 12.5316C5.46432 12.0044 5.90147 11.5673 6.42861 11.5673H12.8572C13.3844 11.5673 13.8215 12.0044 13.8215 12.5316C13.8215 13.0587 13.3844 13.4959 12.8572 13.4959Z" fill="#00296B"/>
    <path d="M22.111 15C19.8888 15 17.88 16.0489 16.5822 17.6489C15.5867 18.8755 15 20.4221 15 22.111C15 26.0398 18.2 29.222 22.111 29.222C25.2043 29.222 27.8532 27.2487 28.8131 24.4754C29.0798 23.7465 29.222 22.9466 29.222 22.111C29.222 18.2 26.0398 15 22.111 15ZM26.3065 25.2043C26.271 25.311 26.1998 25.4176 26.1287 25.4887L24.8487 26.7509C24.6888 26.9287 24.4754 26.9998 24.2443 26.9998C24.0132 26.9998 23.7821 26.9287 23.6221 26.7509C23.3377 26.4843 23.3021 26.0576 23.4799 25.7376H19.9066C18.7688 25.7376 17.8444 24.8132 17.8444 23.6577V23.4799C17.8444 22.9821 18.2355 22.6088 18.7155 22.6088C19.1955 22.6088 19.5866 22.9821 19.5866 23.4799V23.6577C19.5866 23.8532 19.7288 24.0132 19.9244 24.0132H23.4977C23.3199 23.6754 23.3554 23.2666 23.6399 22.9821C23.9777 22.6443 24.5288 22.6443 24.8487 22.9821L26.1287 24.2621C26.1998 24.3332 26.271 24.4399 26.3243 24.5465C26.3954 24.7421 26.3954 24.991 26.3065 25.2043ZM26.3776 20.7421C26.3776 21.2399 25.9865 21.6132 25.5065 21.6132C25.0265 21.6132 24.6354 21.2399 24.6354 20.7421V20.5644C24.6354 20.3688 24.4932 20.2088 24.2976 20.2088H20.7421C20.9199 20.5466 20.8844 20.9555 20.5999 21.2399C20.4399 21.3999 20.2266 21.4888 19.9777 21.4888C19.7644 21.4888 19.5333 21.3999 19.3733 21.2399L18.0933 19.9599C18.0222 19.8888 17.9511 19.7822 17.8977 19.6755C17.8266 19.4622 17.8266 19.2311 17.8977 19.0177C17.9511 18.9288 18.0044 18.8044 18.0933 18.7333L19.3733 17.4711C19.711 17.1155 20.2621 17.1155 20.5821 17.4711C20.8666 17.7377 20.9021 18.1644 20.7244 18.4844H24.2976C25.4354 18.4844 26.3598 19.4088 26.3598 20.5644V20.7421H26.3776Z" fill="#FFC300"/>
</svg>
